<?xml version="1.0" encoding="UTF-8" ?>
<!DOCTYPE svg PUBLIC "-//W3C//DTD SVG 1.1//EN" "http://www.w3.org/Graphics/SVG/1.1/DTD/svg11.dtd">
<svg width="903pt" height="904pt" viewBox="0 0 903 904" version="1.1" xmlns="http://www.w3.org/2000/svg">
<g id="#10152960">
<path fill="#101529" opacity="0.38" d=" M 0.00 0.00 L 903.00 0.00 L 903.00 444.53 C 902.05 405.54 896.58 366.62 885.87 329.10 C 864.61 253.56 823.13 183.86 766.95 129.07 C 709.30 72.67 636.27 32.16 557.84 13.29 C 511.88 2.11 464.15 -1.72 416.99 1.92 C 332.40 8.22 249.86 39.18 181.90 89.93 C 114.19 140.17 61.15 209.87 30.73 288.51 C 11.32 338.16 1.17 391.27 0.00 444.53 L 0.00 0.00 Z" />
<path fill="#101529" opacity="0.38" d=" M 472.53 94.60 C 475.60 94.67 478.67 94.74 481.74 94.83 C 481.57 96.51 481.40 98.19 481.26 99.87 C 478.33 99.69 475.41 99.54 472.48 99.46 C 472.45 97.84 472.47 96.22 472.53 94.60 Z" />
<path fill="#101529" opacity="0.38" d=" M 440.23 104.56 C 442.96 104.65 445.71 104.64 448.45 104.56 C 448.55 110.70 448.22 116.86 448.59 123.00 C 450.09 126.68 454.55 127.46 458.07 127.65 C 462.30 127.74 467.58 128.36 470.45 124.48 C 472.01 118.22 471.31 111.61 472.28 105.24 C 475.06 105.46 477.85 105.67 480.64 105.70 C 480.73 112.17 479.09 118.56 479.64 125.04 C 484.02 130.68 492.50 130.36 498.87 129.17 C 501.52 126.67 501.40 122.56 503.82 119.89 C 507.71 115.26 514.24 113.95 520.03 114.63 C 526.36 115.49 533.62 116.81 537.48 122.50 C 540.96 126.19 538.87 131.51 539.65 135.95 C 543.16 140.54 549.55 141.71 555.01 141.79 C 558.07 142.11 561.24 140.28 562.16 137.28 C 565.14 128.99 567.51 120.48 570.88 112.32 C 573.56 113.25 576.23 114.23 578.90 115.20 C 576.72 122.37 573.76 129.27 571.32 136.35 C 570.03 140.69 567.39 145.24 562.58 146.20 C 553.41 147.98 543.98 144.87 536.22 140.03 C 531.01 144.71 523.57 145.48 517.00 143.76 C 511.84 142.47 506.04 140.68 503.11 135.86 C 502.52 134.64 501.41 133.89 500.04 134.28 C 491.48 135.03 482.42 134.10 475.07 129.31 C 465.66 133.61 454.17 133.15 444.98 128.52 C 436.61 133.55 426.41 132.85 417.02 133.55 C 402.55 134.78 388.29 137.58 373.96 139.85 C 365.51 141.64 357.07 144.81 348.30 143.69 C 344.74 142.93 340.77 141.17 339.52 137.46 C 337.71 132.89 336.32 128.17 334.75 123.51 C 333.58 119.50 331.61 115.68 331.19 111.47 C 333.85 110.70 336.51 109.96 339.19 109.29 C 341.64 116.74 344.16 124.18 346.18 131.76 C 346.99 134.08 347.56 136.88 349.80 138.29 C 352.40 140.20 355.86 139.59 358.84 139.16 C 382.75 133.18 407.22 128.99 431.88 128.23 C 434.94 127.61 438.54 126.87 440.18 123.88 C 440.71 117.46 440.13 111.00 440.23 104.56 M 514.44 119.49 C 508.85 123.36 507.60 132.57 512.54 137.47 C 515.37 140.09 519.48 139.76 523.05 139.72 C 527.46 139.99 530.21 135.65 531.39 131.96 C 531.68 128.50 532.48 124.10 529.25 121.74 C 525.22 118.65 519.09 117.22 514.44 119.49 Z" />
<path fill="#101529" opacity="0.38" d=" M 589.27 119.10 C 592.21 119.50 594.96 120.71 597.75 121.68 C 593.20 133.50 587.63 144.93 582.72 156.60 C 580.18 156.87 577.77 155.08 575.30 154.51 C 580.29 142.84 584.53 130.87 589.27 119.10 Z" />
<path fill="#101529" opacity="0.38" d=" M 295.12 124.49 C 297.68 123.60 300.21 122.55 302.90 122.08 C 307.23 134.01 312.77 145.44 317.66 157.16 C 315.07 158.07 312.54 159.22 309.84 159.78 C 306.23 150.70 302.45 141.69 298.03 132.97 C 296.82 130.24 295.10 127.58 295.12 124.49 Z" />
<path fill="#101529" opacity="0.38" d=" M 276.33 133.59 C 278.91 132.23 281.52 130.79 284.41 130.16 C 287.97 137.64 291.85 144.97 295.49 152.41 C 297.37 155.89 297.48 160.62 294.83 163.75 C 290.97 169.41 284.50 172.19 278.79 175.56 C 274.98 177.59 271.42 180.10 267.45 181.84 C 266.88 180.60 266.33 179.36 265.85 178.09 C 268.13 176.74 270.39 175.34 272.68 173.99 C 269.19 166.90 264.16 160.72 260.48 153.74 C 258.89 150.69 257.17 147.72 255.26 144.86 C 257.66 143.22 260.06 141.54 262.66 140.23 C 268.29 150.20 273.92 160.16 279.92 169.91 C 283.33 168.24 286.75 165.95 288.44 162.43 C 289.98 157.66 286.39 153.54 284.58 149.45 C 282.23 143.96 279.24 138.79 276.33 133.59 Z" />
<path fill="#101529" opacity="0.38" d=" M 239.94 140.89 C 242.82 136.65 247.82 133.62 253.08 134.35 C 251.49 137.08 247.81 136.82 245.38 138.43 C 243.62 139.15 244.51 141.46 244.27 142.90 C 248.83 142.18 252.44 138.92 256.65 137.20 C 256.64 137.78 256.62 138.92 256.61 139.50 C 251.10 142.16 246.00 145.56 240.82 148.77 C 239.72 149.62 238.32 149.63 237.02 149.85 C 237.54 148.04 239.12 147.06 240.59 146.06 C 240.27 144.38 239.12 142.59 239.94 140.89 Z" />
<path fill="#101529" opacity="0.38" d=" M 441.27 137.74 C 443.69 137.85 446.12 137.81 448.55 137.69 C 448.54 139.30 448.55 140.92 448.60 142.54 C 446.15 142.49 443.71 142.49 441.27 142.58 C 441.28 140.96 441.28 139.35 441.27 137.74 Z" />
<path fill="#101529" opacity="0.38" d=" M 428.34 138.48 C 430.96 138.48 433.57 138.35 436.19 138.36 C 436.24 139.79 436.30 141.23 436.39 142.67 C 433.67 142.84 430.94 142.85 428.23 142.85 C 428.23 141.39 428.28 139.93 428.34 138.48 Z" />
<path fill="#101529" opacity="0.38" d=" M 637.24 146.19 C 638.24 144.91 638.84 143.19 640.23 142.29 C 642.48 143.00 644.49 144.33 646.45 145.63 C 647.25 146.95 645.87 148.51 645.61 149.86 C 642.46 149.61 639.98 147.52 637.24 146.19 Z" />
<path fill="#101529" opacity="0.38" d=" M 613.53 167.60 C 609.02 159.77 615.92 148.44 625.04 149.15 C 630.68 148.80 635.49 152.14 640.25 154.67 C 644.96 157.18 649.36 160.22 653.90 163.04 C 649.84 169.51 646.03 176.20 641.20 182.13 C 643.43 184.62 646.70 185.74 649.36 187.69 C 657.88 194.14 666.66 200.29 674.66 207.39 C 679.68 211.35 684.00 216.10 689.05 220.04 C 688.33 214.43 685.41 209.44 684.27 203.96 C 683.33 201.19 686.50 200.40 688.42 199.61 C 695.63 198.17 702.24 202.22 707.88 206.20 C 715.77 211.54 721.30 220.00 723.58 229.20 C 724.40 232.88 723.42 236.59 721.54 239.77 C 715.00 239.51 709.44 235.27 703.03 234.22 C 705.24 237.79 708.60 240.42 711.03 243.83 C 714.72 248.27 718.01 254.02 724.10 255.35 C 729.59 255.68 733.38 249.77 738.99 250.33 C 744.70 249.86 749.44 253.99 752.97 258.01 C 757.44 264.00 761.54 271.31 760.28 279.06 C 758.89 287.60 747.43 293.01 740.30 287.70 C 734.89 284.16 731.07 278.68 728.00 273.10 C 726.43 269.87 725.11 266.40 725.52 262.74 C 714.53 257.81 708.79 246.64 700.55 238.49 C 697.22 235.38 695.65 230.74 691.76 228.20 C 682.92 221.44 675.71 212.76 666.59 206.35 C 658.51 200.08 650.44 193.79 642.02 187.99 C 638.25 185.31 633.94 183.53 630.12 180.93 C 624.27 176.96 617.17 174.04 613.53 167.60 M 620.39 166.83 C 620.87 169.82 623.64 171.63 626.04 173.09 C 628.89 174.76 631.54 176.87 634.71 177.96 C 638.02 172.63 641.68 167.51 644.74 162.02 C 639.54 159.57 635.03 155.12 629.01 154.90 C 623.55 155.37 618.46 161.33 620.39 166.83 M 691.20 207.25 C 692.22 213.90 695.39 219.99 696.42 226.65 C 702.61 228.85 708.99 230.43 715.17 232.68 C 716.13 231.26 717.17 229.76 717.35 228.00 C 716.42 220.44 711.53 213.93 705.47 209.57 C 701.51 206.42 695.95 205.69 691.20 207.25 M 740.22 257.90 C 736.31 259.53 732.42 262.57 731.57 266.93 C 731.14 272.96 735.30 278.74 740.55 281.38 C 746.21 282.90 751.96 278.95 754.51 274.05 C 755.47 269.21 753.08 264.58 750.00 261.02 C 747.57 258.34 743.79 256.52 740.22 257.90 Z" />
<path fill="#101529" opacity="0.38" d=" M 652.89 149.80 C 655.19 151.10 657.44 152.48 659.81 153.68 C 659.38 155.42 658.19 156.80 657.13 158.20 C 654.89 156.74 652.61 155.35 650.33 153.98 C 651.06 152.51 651.99 151.16 652.89 149.80 Z" />
<path fill="#101529" opacity="0.38" d=" M 226.95 173.77 C 232.51 170.54 238.88 167.93 245.40 169.69 C 251.68 173.93 254.59 181.36 259.19 187.15 C 250.40 193.27 241.47 199.25 233.38 206.30 C 224.14 212.30 217.54 222.34 206.65 225.63 C 203.42 235.53 195.64 243.92 186.27 248.37 C 183.98 258.91 175.91 266.57 170.44 275.49 C 160.15 292.42 149.81 309.51 142.82 328.13 C 139.12 336.36 136.99 345.38 131.96 352.97 C 129.13 357.18 124.47 361.35 119.01 360.39 C 115.94 359.36 112.55 358.05 110.89 355.06 C 107.70 350.36 108.07 344.26 109.37 338.98 C 111.85 330.17 115.59 321.78 119.06 313.32 C 125.92 316.85 132.95 320.06 140.16 322.82 C 143.64 316.73 145.55 309.94 148.94 303.81 C 157.23 287.96 166.68 272.75 177.13 258.25 C 178.97 255.58 180.81 251.48 178.38 248.65 C 174.31 244.67 169.47 241.55 165.48 237.49 C 164.93 234.60 168.44 232.61 169.61 230.15 C 175.31 233.44 179.38 238.97 185.08 242.28 C 189.10 242.65 192.24 239.46 194.75 236.74 C 197.37 233.69 200.93 230.09 199.65 225.68 C 197.85 222.20 194.15 220.31 191.72 217.33 C 188.21 213.14 183.99 209.65 179.96 205.99 C 178.56 205.05 179.29 203.14 180.25 202.19 C 181.68 200.69 183.32 199.40 184.92 198.08 C 188.58 201.73 191.80 205.81 195.75 209.16 C 199.52 212.54 202.31 217.24 207.06 219.37 C 213.38 219.30 217.27 213.54 221.84 210.01 C 217.53 205.07 210.50 200.45 211.41 193.02 C 211.80 187.38 216.17 183.10 219.79 179.15 C 219.06 177.84 217.36 176.82 217.39 175.22 C 219.13 173.41 221.18 171.91 223.33 170.63 C 225.17 170.32 225.88 172.72 226.95 173.77 M 230.03 177.25 C 233.45 183.08 238.14 188.06 242.00 193.61 C 244.66 191.83 247.27 189.98 249.82 188.05 C 247.09 184.47 244.66 180.66 241.65 177.32 C 238.72 173.83 233.41 175.12 230.03 177.25 M 220.65 184.51 C 218.35 186.73 218.01 190.04 218.56 193.03 C 221.08 197.39 224.92 200.75 227.96 204.72 C 230.61 202.79 233.54 201.03 235.37 198.21 C 231.35 193.64 227.83 188.65 223.83 184.07 C 223.02 182.91 221.20 183.33 220.65 184.51 M 119.14 323.93 C 117.40 328.95 115.13 333.79 113.82 338.96 C 112.38 345.52 119.09 352.91 125.81 350.17 C 132.46 346.64 133.69 338.41 136.29 332.03 L 136.09 331.15 C 130.56 328.49 124.97 325.82 119.14 323.93 Z" />
<path fill="#101529" opacity="0.38" d=" M 418.00 176.19 C 422.59 175.04 427.40 175.88 431.99 174.67 C 443.33 174.43 454.69 174.36 466.03 174.64 C 471.29 175.93 476.72 175.17 482.06 175.63 C 486.37 176.32 490.60 177.66 495.01 177.53 C 524.47 182.35 553.37 191.37 579.97 205.03 C 614.89 222.78 646.19 247.71 671.02 278.02 C 697.54 309.87 716.95 347.63 727.26 387.78 C 730.04 398.79 732.80 409.89 733.84 421.21 C 734.94 425.11 734.12 429.24 735.19 433.15 C 735.92 437.72 735.06 442.45 736.29 446.98 C 736.65 454.98 736.61 463.02 736.33 471.03 C 734.73 477.26 736.26 483.78 734.90 490.04 C 728.81 547.53 704.64 603.00 666.62 646.61 C 523.19 646.58 379.77 646.57 236.34 646.61 C 230.45 639.46 224.54 632.31 219.24 624.70 C 212.73 615.99 207.60 606.39 201.81 597.22 C 198.42 591.09 195.80 584.58 192.50 578.40 C 187.26 568.20 184.21 557.10 179.82 546.54 C 176.01 534.53 173.76 522.07 170.92 509.81 C 170.25 502.98 168.38 496.31 168.27 489.44 C 166.88 484.05 168.03 478.41 166.63 473.03 C 166.34 464.01 166.47 454.97 166.57 445.94 C 167.18 442.32 167.70 438.69 167.51 435.00 C 169.40 413.37 173.93 391.96 180.44 371.22 C 185.27 358.41 189.63 345.34 196.21 333.28 C 224.61 275.07 273.78 227.50 332.55 200.43 C 357.63 188.66 384.58 181.19 411.89 176.82 C 413.91 176.48 415.98 176.55 418.00 176.19 M 424.08 189.14 C 388.54 192.43 353.71 203.32 322.38 220.45 C 294.80 235.13 270.19 255.12 249.19 278.19 C 223.35 307.26 203.52 341.72 192.04 378.91 C 187.57 392.40 185.10 406.44 182.60 420.39 C 182.49 425.78 181.33 431.07 180.62 436.41 C 180.29 442.27 180.64 448.15 180.33 454.01 C 179.79 456.97 179.20 459.99 179.74 463.01 C 181.41 470.57 179.54 478.45 181.17 486.02 C 184.17 517.40 192.35 548.45 206.25 576.83 C 215.30 595.83 226.43 613.91 239.96 630.07 C 241.27 632.17 243.92 631.44 245.98 631.56 C 384.67 631.51 523.36 631.60 662.05 631.52 C 668.89 622.78 675.69 613.99 681.55 604.56 C 686.57 597.60 689.96 589.70 694.21 582.30 C 697.89 574.20 702.13 566.34 704.92 557.87 C 711.19 542.78 715.13 526.86 718.47 510.91 C 719.34 505.93 719.72 500.89 720.88 495.97 C 722.02 491.72 721.00 487.25 722.04 483.00 C 722.94 478.59 722.28 474.07 722.68 469.62 C 723.76 464.16 723.59 458.52 723.19 453.00 C 721.85 447.42 723.19 441.60 722.01 436.01 C 721.26 432.97 721.69 429.82 721.29 426.75 C 720.52 421.91 719.36 417.13 719.35 412.21 C 718.33 407.44 716.65 402.80 716.12 397.91 C 713.44 385.95 709.89 374.14 705.29 362.77 C 684.58 307.65 645.03 260.03 595.18 228.81 C 565.52 210.49 532.44 197.48 498.04 191.61 C 491.84 191.24 485.82 189.44 479.61 189.29 C 473.84 187.83 467.81 189.16 462.05 187.65 C 455.02 187.47 447.97 187.43 440.95 187.67 C 435.42 189.18 429.62 187.84 424.08 189.14 Z" />
<path fill="#101529" opacity="0.38" d=" M 423.54 195.24 C 427.94 194.04 432.57 194.86 436.97 193.65 C 447.31 193.34 457.68 193.47 468.02 193.62 C 475.67 194.88 483.41 195.25 491.05 196.47 C 494.80 196.75 498.37 198.17 502.13 198.47 C 505.83 198.76 509.26 200.52 513.01 200.62 C 550.41 209.76 585.93 226.86 616.08 250.88 C 668.48 291.89 704.34 353.39 714.26 419.17 C 714.73 426.17 716.70 433.01 716.55 440.05 C 718.29 450.60 717.10 461.39 717.44 472.05 C 715.70 490.41 713.76 508.93 708.83 526.81 C 702.26 552.50 691.52 577.06 677.67 599.65 C 672.15 607.75 667.10 616.24 660.59 623.61 C 659.28 624.80 658.15 626.84 656.10 626.56 C 545.07 626.50 434.03 626.55 323.00 626.54 C 296.93 626.60 270.85 626.40 244.78 626.63 C 209.89 584.01 188.83 530.04 186.20 475.05 C 184.81 466.17 185.83 457.07 185.61 448.10 C 186.97 442.13 186.05 435.96 187.38 429.99 C 187.28 424.59 189.12 419.43 189.51 414.09 C 194.10 388.48 202.20 363.40 214.18 340.27 C 221.92 323.80 232.32 308.77 243.33 294.35 C 266.59 264.98 296.17 240.72 329.32 223.29 C 338.71 218.33 348.61 214.48 358.38 210.34 C 375.60 204.04 393.41 199.13 411.56 196.49 C 415.47 195.35 419.53 195.62 423.54 195.24 M 447.44 202.57 C 443.77 204.03 440.03 207.70 440.38 212.00 C 440.04 217.05 444.98 221.89 449.99 221.62 C 453.89 222.04 457.54 219.31 459.21 215.92 C 459.86 213.67 459.64 211.26 459.50 208.96 C 457.81 204.09 452.41 201.36 447.44 202.57 M 423.40 219.39 C 421.29 220.74 419.84 222.89 418.64 225.04 C 417.59 229.18 420.19 233.27 423.72 235.27 C 429.19 238.83 436.93 233.09 436.50 227.00 C 436.32 220.87 428.80 216.16 423.40 219.39 M 446.52 229.99 C 447.08 233.52 450.56 234.73 453.56 235.53 C 455.03 238.67 456.25 241.93 457.66 245.11 C 456.14 246.09 454.77 247.48 452.95 247.85 C 450.41 247.17 448.70 244.90 446.75 243.28 C 445.81 241.39 446.81 239.08 446.46 237.04 C 445.33 234.54 442.83 232.39 439.99 232.47 C 435.69 233.71 433.37 239.87 437.04 242.95 C 439.03 245.22 442.20 244.31 444.83 244.22 C 447.02 246.03 449.06 248.03 451.09 250.02 C 450.42 251.79 449.51 253.45 448.31 254.91 C 445.64 253.82 442.92 252.83 440.09 252.24 C 439.29 249.50 437.92 246.48 435.01 245.48 C 430.85 244.38 427.09 248.14 426.50 252.03 C 426.86 255.18 429.52 258.85 433.01 258.54 C 436.11 259.08 437.90 255.98 439.90 254.19 C 442.72 255.42 446.20 255.64 448.42 257.92 C 448.30 259.75 449.16 262.09 447.43 263.41 C 445.35 264.39 443.17 265.12 440.99 265.86 C 439.38 263.72 437.48 261.73 435.04 260.55 C 428.86 259.77 423.69 267.36 427.37 272.54 C 430.35 277.15 439.18 277.01 440.46 271.11 C 440.58 267.32 444.76 266.56 447.62 265.55 C 450.40 264.76 451.17 268.58 452.57 270.24 C 452.53 273.04 449.79 275.07 448.32 277.30 C 445.67 278.03 442.73 276.68 440.10 277.68 C 436.55 279.63 434.46 283.97 435.77 287.91 C 437.24 290.28 439.34 292.44 442.00 293.41 C 446.25 294.18 450.33 290.93 451.53 286.96 C 452.06 284.08 450.63 281.46 449.40 278.98 C 451.08 276.86 452.59 274.60 453.95 272.26 C 456.80 273.28 459.63 274.33 462.57 275.10 C 462.57 277.19 462.65 279.29 462.49 281.38 C 460.46 282.75 457.77 283.17 456.31 285.29 C 452.24 289.51 454.72 297.35 460.12 299.17 C 465.97 301.48 472.33 295.90 472.43 290.04 C 471.85 288.04 470.80 286.17 469.40 284.64 C 467.84 282.91 465.27 282.66 463.67 280.98 C 463.45 279.22 463.53 277.45 463.40 275.69 C 466.33 274.52 469.28 273.43 472.18 272.18 C 473.62 273.82 475.04 275.49 476.57 277.05 C 474.99 280.02 472.45 283.34 473.98 286.86 C 475.39 291.70 481.12 294.82 485.88 293.01 C 489.36 291.58 492.21 287.89 491.63 283.99 C 492.07 280.27 489.00 277.30 485.97 275.69 C 483.14 275.11 480.26 275.85 477.41 275.57 C 476.15 274.18 474.79 272.73 474.23 270.90 C 475.32 267.87 477.26 265.23 478.85 262.45 C 480.85 263.17 482.94 263.48 485.04 263.72 C 486.83 265.18 486.21 267.76 487.23 269.64 C 488.47 273.27 492.33 275.43 496.03 275.42 C 500.63 275.00 505.23 270.89 504.68 266.00 C 505.36 260.04 498.62 255.18 493.08 256.80 C 490.58 257.83 488.83 259.94 487.06 261.89 C 484.18 261.66 481.29 261.35 478.54 260.45 C 479.06 253.85 474.68 247.76 468.73 245.26 C 465.84 243.43 462.01 245.39 459.21 243.90 C 457.64 240.74 456.67 237.34 455.30 234.11 C 456.68 231.91 458.77 228.91 456.45 226.56 C 453.62 222.27 446.18 224.91 446.52 229.99 M 411.42 244.39 C 408.20 246.84 406.22 251.72 408.61 255.40 C 409.86 258.35 413.08 259.67 415.97 260.47 C 419.68 260.15 423.22 257.57 424.54 254.07 C 424.63 251.36 425.11 248.13 422.92 246.08 C 420.36 242.56 414.94 242.62 411.42 244.39 M 415.16 270.79 C 412.70 272.34 409.94 274.78 410.35 277.99 C 409.80 282.07 413.59 285.09 417.01 286.43 C 420.97 287.22 424.22 283.95 426.14 280.86 C 428.69 274.66 421.07 268.12 415.16 270.79 M 502.25 281.80 C 502.05 284.59 503.35 287.31 505.99 288.49 C 508.96 289.09 511.75 286.74 512.48 283.97 C 512.63 281.35 510.29 279.27 507.98 278.54 C 505.51 278.10 503.88 280.37 502.25 281.80 M 380.33 295.29 C 348.63 320.28 316.83 345.13 285.15 370.15 C 280.06 374.66 272.42 373.25 266.81 376.68 C 263.99 378.75 262.02 383.58 264.53 386.50 C 267.16 387.76 267.87 384.52 269.04 382.94 C 270.74 379.70 274.86 379.68 278.02 379.16 C 276.41 380.60 274.49 381.90 273.97 384.15 C 280.22 385.51 286.35 382.02 290.39 377.46 C 296.32 370.99 303.19 365.54 309.98 360.03 C 319.29 352.70 328.25 344.97 337.37 337.41 C 348.27 328.67 359.02 319.76 369.78 310.85 C 379.13 303.56 387.82 295.45 397.37 288.41 C 398.52 287.36 400.04 286.53 400.66 285.02 C 400.88 283.26 399.35 281.97 398.09 281.05 C 392.55 286.25 386.15 290.41 380.33 295.29 M 524.20 291.57 C 553.25 316.26 582.27 341.01 611.39 365.63 C 617.93 371.06 623.11 378.04 630.24 382.77 C 633.23 384.49 636.77 386.09 640.28 385.23 C 641.86 382.59 637.47 381.92 636.00 380.50 C 638.28 380.48 640.76 380.13 642.78 381.47 C 645.93 382.70 645.95 386.99 648.93 388.38 C 654.34 385.14 649.91 377.39 644.98 376.46 C 639.33 375.29 633.05 374.59 628.87 370.13 C 604.42 350.26 579.99 330.35 555.53 310.48 C 545.74 302.67 536.03 294.77 526.50 286.65 C 524.16 285.55 522.22 290.24 524.20 291.57 M 337.21 353.07 C 332.92 356.81 329.09 361.02 324.97 364.92 C 319.88 369.47 312.70 369.45 306.51 371.36 C 302.34 373.25 301.00 378.92 303.92 382.53 C 306.65 381.83 307.48 379.03 309.00 377.02 C 311.43 375.54 314.22 374.62 317.05 374.27 C 315.78 376.26 313.66 377.44 312.06 379.13 C 318.95 381.47 325.03 376.03 329.78 371.78 C 338.14 362.47 347.41 354.03 355.60 344.57 C 363.04 337.35 369.75 329.42 377.33 322.34 C 386.03 312.54 395.67 303.63 404.45 293.91 C 405.60 291.79 403.87 290.00 402.11 289.06 C 380.85 310.77 358.55 331.46 337.21 353.07 M 428.14 291.88 C 425.80 293.52 422.92 295.74 423.48 298.98 C 423.37 302.72 426.86 305.26 430.01 306.48 C 432.35 306.93 434.43 305.56 436.21 304.23 C 439.45 301.71 439.43 296.24 436.49 293.52 C 434.50 291.12 430.84 290.89 428.14 291.88 M 493.43 293.23 C 490.91 294.91 489.57 297.99 490.83 300.90 C 492.33 302.76 494.34 304.96 497.00 304.48 C 498.76 303.82 500.04 302.29 501.19 300.87 C 503.91 296.26 497.92 290.05 493.43 293.23 M 519.07 296.11 C 518.34 297.51 517.25 298.65 516.36 299.94 C 536.55 320.32 556.82 340.64 577.09 360.95 C 583.05 366.73 588.39 373.34 595.64 377.60 C 598.04 379.24 601.10 378.55 603.82 378.55 C 604.14 376.47 601.83 375.94 600.54 375.02 C 600.50 374.60 600.42 373.74 600.37 373.32 C 602.35 373.67 604.31 374.20 606.15 375.05 C 609.19 376.17 609.90 379.79 611.95 382.00 C 612.89 380.79 614.63 379.71 614.44 377.97 C 614.94 374.21 611.56 371.72 609.13 369.47 C 601.76 369.11 593.35 367.64 588.44 361.57 C 584.62 357.39 580.10 353.95 576.10 349.96 C 564.10 337.93 551.35 326.68 539.37 314.63 C 532.47 308.61 526.16 301.86 519.07 296.11 M 321.23 392.23 C 316.72 396.97 313.06 402.74 307.37 406.20 C 300.78 409.71 293.09 408.14 285.95 408.46 C 281.27 408.21 277.04 411.70 275.50 415.98 C 274.91 417.96 276.65 418.87 277.98 419.88 C 279.43 418.07 280.73 416.15 282.33 414.47 C 285.28 414.42 288.23 414.37 291.18 414.21 C 289.50 415.26 287.45 416.02 286.93 418.17 C 289.45 419.07 292.20 420.09 294.83 418.88 C 301.91 416.38 309.13 413.79 315.34 409.48 C 321.97 403.71 326.99 396.37 333.02 390.02 C 357.98 361.95 382.61 333.60 407.77 305.71 C 409.34 304.07 410.66 302.22 411.30 300.02 C 410.35 298.96 409.24 298.37 407.97 298.24 C 378.96 329.45 350.23 360.98 321.23 392.23 M 475.49 302.46 C 474.14 303.64 472.24 304.95 472.38 306.98 C 471.94 309.70 474.37 311.56 476.09 313.26 C 480.32 314.85 484.76 310.15 483.58 305.98 C 482.73 302.98 478.36 299.86 475.49 302.46 M 453.37 303.30 C 449.61 305.06 447.91 310.64 451.74 313.31 C 455.37 318.66 463.74 313.64 462.59 307.98 C 461.31 304.54 457.07 300.77 453.37 303.30 M 509.14 306.94 C 516.63 313.79 522.70 321.97 530.01 329.00 C 559.80 360.84 589.62 392.68 619.44 424.49 C 623.76 429.68 630.84 430.56 636.90 432.52 C 640.53 433.86 644.54 433.83 648.32 433.21 C 650.08 428.98 644.05 431.62 643.00 428.59 C 646.20 428.48 649.40 428.57 652.60 428.54 C 654.25 430.47 656.06 432.29 658.08 433.84 C 662.36 429.98 657.36 424.29 653.03 423.44 C 645.83 422.92 638.58 423.79 631.39 423.24 C 625.79 420.97 622.64 415.51 618.24 411.69 C 611.99 404.97 605.42 398.56 599.04 391.95 C 588.45 381.53 578.58 370.42 567.83 360.16 C 561.41 353.26 554.65 346.67 548.10 339.89 C 536.77 327.55 524.69 315.93 513.05 303.89 C 511.49 304.56 510.22 305.63 509.14 306.94 M 405.85 316.92 C 381.38 347.12 357.43 377.73 332.94 407.92 C 330.69 410.65 328.90 413.82 326.18 416.14 C 321.40 419.08 315.51 418.96 310.39 421.03 C 308.08 421.80 306.24 423.67 305.49 425.99 C 305.57 428.31 304.46 432.43 308.18 431.89 C 310.18 430.59 309.67 427.24 312.06 426.30 C 314.58 425.08 317.35 424.36 320.15 424.24 C 318.94 425.67 317.28 426.61 315.95 427.93 C 316.39 430.42 319.04 429.46 320.81 429.25 C 330.48 425.92 336.80 417.38 342.49 409.37 C 360.56 385.45 378.54 361.47 396.69 337.61 C 404.16 328.09 410.92 318.01 418.78 308.80 C 417.81 307.28 416.54 306.05 415.07 305.04 C 411.88 308.92 409.05 313.06 405.85 316.92 M 501.31 313.81 C 504.44 317.02 506.98 320.73 509.71 324.27 C 533.91 356.06 558.17 387.79 582.37 419.58 C 585.87 424.17 591.34 426.47 596.45 428.78 C 598.38 429.85 600.65 429.52 602.71 429.06 C 602.60 428.52 602.38 427.44 602.27 426.89 C 600.64 426.40 599.14 425.59 597.93 424.41 C 600.17 424.46 602.56 424.40 604.54 425.67 C 607.49 426.87 608.31 430.23 609.80 432.73 C 610.49 432.31 611.86 431.48 612.54 431.06 C 612.56 428.97 612.56 426.88 612.68 424.80 C 608.64 418.97 600.95 419.94 595.05 417.58 C 590.49 416.43 588.13 412.07 585.12 408.88 C 558.49 375.88 531.81 342.91 505.04 310.02 C 503.67 311.16 502.38 312.37 501.31 313.81 M 422.93 312.44 C 409.99 334.39 397.38 356.53 384.40 378.46 C 382.04 382.15 380.60 387.31 375.85 388.57 C 370.27 390.78 362.68 390.45 359.42 396.38 C 357.63 398.55 359.47 401.28 359.70 403.69 C 361.01 403.56 362.45 403.37 362.94 401.90 C 364.83 398.11 368.38 394.68 372.97 395.46 C 371.53 397.00 369.17 398.17 369.20 400.58 C 371.56 400.65 374.08 400.71 376.14 399.37 C 382.55 395.89 387.40 390.05 390.92 383.76 C 403.07 361.48 414.51 338.83 426.57 316.52 C 427.77 314.10 425.61 311.29 422.93 312.44 M 491.32 317.80 C 491.18 320.41 492.93 322.43 494.08 324.62 C 504.60 344.49 515.42 364.21 525.73 384.20 C 528.03 388.15 529.82 392.65 533.55 395.53 C 536.40 397.67 539.53 399.62 543.00 400.55 C 544.63 400.44 547.76 401.62 547.96 399.03 C 546.63 398.29 545.27 397.64 543.92 396.98 C 543.71 396.15 543.45 395.35 543.13 394.58 C 545.48 395.98 548.14 396.71 550.74 397.51 C 552.72 398.58 553.13 401.05 554.06 402.91 C 555.27 402.80 556.47 402.63 557.66 402.39 C 557.50 400.09 558.11 397.48 556.60 395.53 C 555.08 392.05 550.91 391.77 547.74 390.81 C 543.55 389.59 538.49 389.09 535.72 385.31 C 524.29 365.80 513.14 346.11 501.55 326.69 C 499.54 323.14 497.92 319.33 495.19 316.26 C 493.91 316.79 492.61 317.31 491.32 317.80 M 397.33 405.52 C 394.26 412.53 385.36 412.66 379.84 416.74 C 376.11 419.47 377.23 424.74 378.59 428.45 C 379.53 428.50 380.47 428.55 381.41 428.59 C 380.46 422.74 385.64 417.84 391.17 417.60 C 391.85 420.21 385.83 420.35 387.53 423.42 C 390.27 424.06 392.98 422.66 395.35 421.43 C 403.98 414.75 407.03 403.86 410.44 394.00 C 415.72 380.61 420.34 366.96 425.72 353.61 C 429.77 342.29 433.79 330.93 438.60 319.91 C 437.13 318.81 435.54 317.84 433.85 317.13 C 421.57 346.55 409.54 376.07 397.33 405.52 M 479.31 322.69 C 488.53 346.48 496.83 370.58 506.06 394.36 C 508.08 400.27 509.88 406.39 513.20 411.72 C 516.56 415.37 521.29 418.79 526.48 418.42 C 527.30 415.91 523.77 414.66 523.07 412.38 C 526.32 413.74 529.46 415.38 532.29 417.49 C 532.47 419.70 531.76 422.35 533.89 423.86 C 536.38 422.60 536.59 419.36 537.48 417.01 C 535.18 407.25 522.03 409.55 517.50 401.71 C 513.40 391.59 509.34 381.45 504.97 371.44 C 501.74 364.22 499.40 356.63 495.80 349.57 C 492.00 340.12 488.42 330.57 484.24 321.28 C 482.51 321.46 480.80 321.77 479.31 322.69 M 444.61 322.48 C 443.12 334.38 438.67 345.75 437.13 357.67 C 434.04 370.86 431.14 384.13 427.92 397.24 C 425.98 402.18 420.26 403.41 416.16 405.97 C 412.96 407.52 409.07 410.91 410.98 414.84 C 412.12 416.83 412.62 419.97 415.07 420.68 C 417.66 419.19 415.97 415.77 416.34 413.37 C 418.51 411.48 420.77 409.43 423.78 409.17 C 422.92 410.44 421.90 411.63 421.30 413.06 C 421.04 415.73 424.02 414.19 425.33 413.62 C 430.89 410.65 436.17 405.43 436.48 398.77 C 440.51 375.81 444.52 352.83 449.01 329.94 C 449.63 327.44 449.74 324.83 449.51 322.28 C 447.87 322.35 446.24 322.41 444.61 322.48 M 456.47 325.93 C 456.60 337.54 455.87 349.17 456.63 360.77 C 456.16 359.51 455.95 358.19 455.66 356.90 C 455.54 369.61 455.55 382.32 455.32 395.03 C 454.83 397.94 455.05 401.47 452.44 403.45 C 449.23 406.15 445.09 407.60 442.31 410.84 C 442.05 414.43 443.68 417.61 445.27 420.70 C 446.45 420.64 447.62 420.52 448.79 420.33 C 448.42 418.45 447.35 416.58 447.74 414.62 C 449.53 412.23 451.80 410.02 454.72 409.12 C 454.07 410.98 453.24 412.81 453.12 414.82 C 458.89 414.75 464.39 408.83 463.62 403.02 C 463.48 392.34 463.49 381.66 463.40 370.99 C 461.87 356.06 462.78 340.99 462.32 326.00 C 462.33 322.66 456.24 322.57 456.47 325.93 M 466.30 324.81 C 468.99 332.68 469.12 341.10 471.26 349.10 C 471.69 355.93 474.00 362.46 474.72 369.25 C 476.76 380.32 479.09 391.30 481.12 402.35 C 482.00 408.76 486.73 414.68 493.31 415.79 C 494.79 412.87 491.98 411.09 490.10 409.46 C 493.60 409.03 497.10 411.17 498.51 414.35 C 498.84 416.46 498.47 418.60 498.44 420.73 C 502.86 421.61 503.80 416.15 504.44 412.99 C 502.38 405.15 490.48 406.16 488.94 398.04 C 486.46 387.49 483.69 377.00 481.71 366.35 C 477.94 352.04 475.86 337.32 471.38 323.23 C 469.61 323.52 467.82 323.81 466.30 324.81 M 263.42 444.01 C 263.58 498.51 263.41 553.02 263.50 607.52 C 274.82 607.49 286.13 607.58 297.44 607.47 C 297.24 586.31 297.57 565.15 297.47 543.99 C 297.65 523.76 297.26 503.50 297.63 483.28 C 298.58 484.48 299.25 485.90 299.62 487.41 C 306.53 509.09 313.75 530.66 321.30 552.14 C 323.65 560.24 326.53 568.16 329.38 576.10 C 332.27 586.74 337.17 596.72 339.78 607.45 C 350.24 607.53 360.71 607.64 371.18 607.40 C 373.24 599.00 376.39 590.91 378.93 582.64 C 386.53 561.31 393.23 539.67 400.48 518.23 C 404.62 505.52 408.83 492.82 412.47 479.94 C 412.68 478.62 412.83 477.30 412.97 475.98 C 413.33 475.81 414.05 475.46 414.41 475.28 C 414.06 519.12 414.36 562.98 414.26 606.82 C 426.06 606.81 437.86 606.93 449.66 606.76 C 449.63 569.18 449.61 531.59 449.67 494.01 C 467.28 521.43 485.02 548.77 502.96 575.97 C 507.93 583.08 512.03 590.76 517.20 597.73 C 519.44 600.91 521.26 604.37 523.51 607.56 C 535.81 607.49 548.12 607.49 560.42 607.56 C 560.95 606.25 561.37 604.89 561.90 603.59 C 576.60 608.59 592.65 609.97 607.90 606.81 C 618.35 605.35 628.59 601.50 636.79 594.73 C 649.80 584.77 656.52 568.64 658.56 552.75 C 659.77 547.58 659.52 542.27 659.61 537.01 C 659.63 505.97 659.57 474.94 659.63 443.91 C 653.11 443.29 646.54 443.76 640.00 443.62 C 634.13 443.77 628.23 443.25 622.38 443.92 C 622.42 475.62 622.39 507.31 622.40 539.01 C 621.68 547.19 621.41 555.86 617.00 563.10 C 613.65 568.20 608.80 572.73 602.73 574.25 C 594.37 576.53 585.16 575.96 577.19 572.51 C 567.83 567.79 563.40 557.04 562.54 547.09 C 562.54 543.36 561.52 539.73 561.59 536.00 C 561.64 505.31 561.57 474.63 561.63 443.94 C 555.78 443.26 549.87 443.77 544.00 443.62 C 537.45 443.77 530.88 443.27 524.37 443.92 C 524.48 477.29 524.27 510.67 524.48 544.05 C 524.31 547.43 525.41 550.67 525.53 554.03 C 524.37 553.00 523.39 551.79 522.75 550.38 C 519.26 543.51 514.59 537.34 510.37 530.91 C 491.97 502.28 473.27 473.85 454.91 445.18 C 454.11 443.84 452.50 443.43 451.05 443.60 C 434.02 443.63 416.99 443.63 399.95 443.61 C 398.57 443.48 396.74 443.83 396.31 445.37 C 392.11 456.56 388.72 468.04 384.82 479.34 C 380.42 491.32 376.85 503.58 372.52 515.58 C 367.69 531.61 361.29 547.18 357.41 563.48 C 357.04 563.41 356.30 563.26 355.93 563.18 C 355.63 556.65 352.77 550.65 351.12 544.41 C 344.84 524.82 338.53 505.23 331.70 485.82 C 327.46 472.30 323.06 458.85 318.48 445.44 C 318.12 443.92 316.45 443.37 315.06 443.60 C 301.04 443.66 287.02 443.60 273.01 443.62 C 269.81 443.64 266.58 443.41 263.42 444.01 Z" />
<path fill="#101529" opacity="0.38" d=" M 194.10 253.04 C 195.36 251.51 197.35 253.13 198.78 253.50 C 198.56 256.35 196.44 258.52 194.58 260.48 C 193.21 260.63 192.34 259.36 191.47 258.53 C 190.68 256.33 192.96 254.64 194.10 253.04 Z" />
<path fill="#101529" opacity="0.38" d=" M 182.78 268.78 C 184.01 266.51 185.28 264.12 187.30 262.45 C 188.68 262.69 189.68 263.77 190.89 264.40 C 190.29 267.30 188.05 269.39 186.47 271.78 C 185.15 270.90 183.99 269.80 182.78 268.78 Z" />
<path fill="#101529" opacity="0.38" d=" M 777.73 287.88 C 778.74 287.30 779.95 287.37 781.09 287.29 C 782.06 290.10 783.54 292.71 784.64 295.47 C 776.81 298.84 769.25 302.79 761.71 306.75 C 759.40 307.95 757.00 310.05 757.40 312.93 C 756.91 318.86 760.57 323.90 762.38 329.30 C 765.42 337.83 768.59 346.33 771.32 354.97 C 776.79 354.19 780.60 348.96 781.72 343.84 C 783.60 335.95 781.06 328.01 779.18 320.39 C 780.33 319.98 781.51 319.59 782.69 319.24 C 786.23 328.31 788.49 338.19 787.08 347.95 C 786.05 353.28 783.78 358.89 779.05 361.95 C 776.33 363.85 773.05 364.57 769.93 365.52 C 766.85 356.06 764.78 346.29 760.70 337.18 C 757.89 328.06 752.29 319.74 751.70 310.02 C 751.46 305.94 752.75 300.96 756.84 299.17 C 764.11 295.98 770.64 291.42 777.73 287.88 Z" />
<path fill="#101529" opacity="0.38" d=" M 108.87 309.41 C 110.87 309.22 112.44 310.19 113.60 311.78 C 112.22 314.32 111.17 317.03 110.26 319.77 C 108.97 319.44 107.67 319.08 106.50 318.44 C 105.63 315.23 108.06 312.38 108.87 309.41 Z" />
<path fill="#101529" opacity="0.38" d=" M 102.37 325.29 C 103.84 325.36 105.30 325.46 106.76 325.57 C 106.78 329.10 105.18 332.30 104.19 335.61 C 102.91 335.12 101.63 334.65 100.29 334.39 C 100.06 331.20 101.40 328.24 102.37 325.29 Z" />
<path fill="#101529" opacity="0.38" d=" M 751.34 342.37 C 752.95 341.94 754.58 341.57 756.23 341.30 C 757.09 344.00 758.04 346.67 758.84 349.40 C 757.24 349.84 755.64 350.19 754.05 350.62 C 753.14 347.87 752.12 345.16 751.34 342.37 Z" />
<path fill="#101529" opacity="0.38" d=" M 0.00 461.46 C 0.98 489.41 3.84 517.33 9.70 544.70 C 18.96 588.90 34.92 631.70 56.86 671.17 C 94.50 739.16 150.10 797.06 216.51 837.43 C 278.16 875.10 349.00 897.62 421.10 902.38 C 485.29 906.77 550.39 897.19 610.59 874.46 C 656.24 857.29 699.06 832.63 736.85 801.80 C 809.48 742.81 862.83 660.59 887.17 570.24 C 896.90 534.79 901.84 498.15 903.00 461.44 L 903.00 904.00 L 0.00 904.00 L 0.00 461.46 Z" />
<path fill="#101529" opacity="0.38" d=" M 774.68 517.15 C 785.85 527.68 796.87 538.42 806.89 550.07 C 809.89 554.21 814.25 558.37 813.61 563.96 C 814.00 571.00 811.20 577.60 809.09 584.16 C 807.20 585.25 804.73 583.38 802.81 582.80 C 802.77 577.94 806.70 572.33 803.37 567.68 C 802.64 565.60 800.09 566.24 798.47 566.64 C 788.91 570.09 779.11 572.84 769.22 575.17 C 766.21 576.11 763.10 576.69 759.95 576.85 C 761.67 571.52 763.65 566.27 764.88 560.80 C 774.55 558.92 784.31 557.07 793.73 554.20 C 787.04 547.55 779.88 541.38 772.56 535.43 C 771.57 529.35 774.45 523.28 774.68 517.15 Z" />
<path fill="#101529" opacity="0.38" d=" M 99.16 529.08 C 113.60 526.94 127.88 523.78 142.27 521.37 C 143.39 521.22 144.52 521.18 145.64 521.26 C 146.41 525.40 146.75 529.62 147.97 533.68 C 148.50 536.02 149.36 538.81 147.80 540.95 C 142.85 549.16 138.15 557.53 133.97 566.16 C 131.50 571.30 128.63 576.28 126.86 581.73 C 137.29 578.27 147.45 574.00 157.95 570.80 C 159.79 575.26 161.49 579.83 162.82 584.48 C 151.75 589.12 140.63 593.64 129.58 598.33 C 126.17 599.71 122.86 601.56 119.13 601.88 C 117.38 597.34 115.68 592.76 114.14 588.14 C 113.69 586.64 112.93 585.00 113.70 583.47 C 120.05 568.33 127.88 553.88 135.68 539.47 C 124.98 541.86 114.26 544.29 103.67 547.15 C 102.17 547.45 102.40 545.27 101.96 544.40 C 101.11 539.28 99.84 534.23 99.16 529.08 Z" />
<path fill="#101529" opacity="0.38" d=" M 757.82 582.25 C 759.87 582.28 761.89 582.66 763.85 583.25 C 762.86 586.58 761.68 589.84 760.39 593.06 C 767.25 595.37 773.57 599.45 780.71 600.80 C 782.16 598.00 783.38 595.09 784.28 592.08 C 786.51 592.38 788.66 593.06 790.85 593.63 C 789.62 599.26 787.17 604.55 784.76 609.75 C 782.98 613.06 780.37 617.44 776.10 617.14 C 768.76 614.32 761.90 610.38 754.68 607.25 C 753.28 609.61 752.14 612.12 751.07 614.65 C 749.53 613.60 747.21 613.29 746.27 611.63 C 746.64 609.05 748.11 606.82 748.88 604.37 C 745.92 603.24 743.13 601.75 740.43 600.12 C 742.29 595.87 744.05 591.56 745.62 587.19 C 748.75 587.68 751.57 589.20 754.32 590.71 C 756.02 588.14 757.12 585.23 757.82 582.25 Z" />
<path fill="#101529" opacity="0.38" d=" M 146.13 605.42 C 152.35 603.06 157.86 608.04 161.42 612.59 C 166.69 619.78 170.83 627.87 173.38 636.43 C 173.62 640.31 174.90 645.47 171.13 648.11 C 165.37 652.44 158.93 655.80 153.15 660.13 C 151.14 661.45 151.71 664.09 151.40 666.12 C 148.17 661.74 145.60 656.91 142.77 652.27 C 141.40 650.46 142.93 648.40 143.80 646.78 C 135.59 641.59 129.86 633.00 127.67 623.60 C 126.92 618.75 126.58 612.49 131.52 609.68 C 134.65 609.14 138.38 608.78 140.94 611.08 C 149.43 617.75 152.41 628.86 159.90 636.44 C 160.78 636.41 162.55 636.35 163.43 636.32 C 164.57 630.37 161.51 624.68 157.63 620.41 C 156.20 618.70 153.57 619.27 151.96 617.97 C 149.85 613.86 147.91 609.67 146.13 605.42 M 137.49 625.58 C 136.19 631.50 140.25 636.86 144.29 640.71 C 147.21 643.76 152.66 643.44 155.28 640.12 C 150.78 635.38 148.10 629.18 143.28 624.75 C 141.55 622.75 138.81 623.64 137.49 625.58 Z" />
<path fill="#101529" opacity="0.38" d=" M 730.77 613.28 C 733.09 614.47 736.20 615.14 737.73 617.27 C 736.97 621.77 733.42 625.36 731.96 629.70 C 729.40 628.85 727.16 627.28 724.95 625.78 C 725.96 621.23 729.05 617.55 730.77 613.28 Z" />
<path fill="#101529" opacity="0.38" d=" M 741.96 619.03 C 752.00 624.70 762.36 629.81 772.40 635.48 C 770.78 640.45 767.36 644.86 765.24 649.71 C 756.20 644.96 747.63 639.27 738.73 634.22 C 737.54 633.44 736.12 632.91 735.22 631.79 C 737.00 627.32 739.79 623.33 741.96 619.03 Z" />
<path fill="#101529" opacity="0.38" d=" M 721.45 654.44 C 725.26 650.65 730.33 647.34 735.97 648.26 C 735.71 652.29 732.36 655.07 730.52 658.44 C 729.01 661.85 724.43 660.46 722.28 663.23 C 719.28 666.52 715.56 670.30 715.62 675.03 C 715.96 675.43 716.62 676.21 716.95 676.60 C 720.36 676.21 722.60 673.16 725.00 671.01 C 730.26 665.97 734.89 660.18 740.82 655.91 C 744.64 652.89 751.08 654.56 752.41 659.36 C 754.15 668.70 748.91 677.37 743.56 684.55 C 738.67 690.97 732.87 697.45 724.94 699.96 C 722.17 700.98 719.25 699.92 717.02 698.23 C 720.34 694.82 723.49 691.23 726.35 687.43 C 729.71 687.95 732.85 686.59 735.12 684.13 C 739.00 680.09 743.53 675.23 742.73 669.16 C 738.95 668.61 736.52 671.77 734.14 674.13 C 729.31 679.29 724.20 684.29 718.24 688.12 C 715.36 690.14 710.73 690.62 708.28 687.71 C 704.82 684.53 705.74 679.44 706.71 675.38 C 709.87 667.35 715.30 660.41 721.45 654.44 Z" />
<path fill="#101529" opacity="0.38" d=" M 178.12 652.98 C 178.53 651.62 180.04 650.94 181.18 650.28 C 184.29 649.79 184.39 654.46 186.85 655.47 C 189.62 654.39 191.49 651.67 194.21 650.46 C 195.33 650.50 195.68 651.76 196.31 652.48 C 198.34 655.45 200.32 658.47 202.77 661.12 C 200.09 663.01 197.64 665.21 194.94 667.08 C 196.69 669.43 198.53 671.72 200.37 674.00 C 199.00 675.52 197.62 677.22 195.58 677.84 C 193.91 675.46 192.07 673.18 190.11 671.03 C 184.52 675.71 178.21 679.61 173.22 684.93 C 174.96 687.41 176.66 689.94 178.84 692.07 C 177.19 693.86 175.28 695.50 173.07 696.54 C 169.54 691.91 165.64 687.48 162.88 682.34 C 161.55 679.53 160.14 675.33 163.01 673.03 C 169.09 668.19 175.70 664.03 181.77 659.18 C 180.38 657.23 178.71 655.36 178.12 652.98 Z" />
<path fill="#101529" opacity="0.38" d=" M 215.65 674.67 C 216.97 673.42 218.05 675.17 218.92 676.01 C 221.06 678.45 223.05 681.02 225.40 683.28 C 223.53 685.15 221.97 688.22 219.22 688.67 C 216.15 686.51 213.99 683.14 211.44 680.39 C 210.55 677.59 214.00 676.24 215.65 674.67 Z" />
<path fill="#101529" opacity="0.38" d=" M 415.56 676.56 C 419.91 676.50 424.27 676.57 428.62 676.44 C 428.69 680.69 428.92 684.98 428.38 689.21 C 424.05 689.42 419.75 689.06 415.46 688.62 C 415.46 684.60 415.39 680.57 415.56 676.56 Z" />
<path fill="#101529" opacity="0.38" d=" M 495.28 676.47 C 499.52 676.54 503.77 676.55 508.03 676.48 C 508.74 680.23 508.45 684.11 508.31 687.92 C 504.63 690.49 499.30 689.05 495.03 688.69 C 494.57 684.64 494.43 680.48 495.28 676.47 Z" />
<path fill="#101529" opacity="0.38" d=" M 343.49 677.30 C 350.09 676.42 356.94 676.35 363.52 677.32 C 366.68 691.92 370.18 706.44 373.36 721.03 C 375.17 717.05 375.39 712.62 376.54 708.45 C 379.09 698.21 381.04 687.82 383.66 677.59 C 384.02 677.41 384.74 677.03 385.10 676.84 C 391.04 676.76 397.07 676.34 402.97 677.25 C 403.68 692.14 403.05 707.09 403.25 722.00 C 403.10 727.52 403.62 733.08 402.94 738.58 C 398.72 738.61 394.50 738.63 390.28 738.61 C 389.30 733.09 390.50 727.54 390.18 721.99 C 390.46 716.32 389.49 710.66 390.01 705.00 C 390.12 702.53 389.75 700.07 389.48 697.63 C 386.18 711.21 383.18 724.91 380.31 738.59 C 375.73 738.61 371.14 738.67 366.56 738.55 C 364.34 727.62 361.86 716.76 359.50 705.87 C 358.76 703.07 358.93 699.76 356.88 697.52 C 356.43 711.20 356.89 724.91 356.64 738.60 C 352.28 738.58 347.93 738.71 343.58 738.52 C 343.38 718.11 343.56 697.70 343.49 677.30 Z" />
<path fill="#101529" opacity="0.38" d=" M 199.17 689.14 C 201.97 686.72 204.57 684.03 207.71 682.05 C 210.40 685.58 213.70 688.59 216.54 692.02 C 208.11 700.13 199.93 708.57 191.15 716.30 C 188.00 712.70 184.48 709.42 181.47 705.70 C 181.53 705.44 181.64 704.94 181.69 704.68 C 187.46 699.44 193.48 694.47 199.17 689.14 Z" />
<path fill="#101529" opacity="0.38" d=" M 695.08 685.86 C 697.73 687.42 699.87 689.68 702.33 691.51 C 698.62 695.00 694.59 698.84 693.56 704.05 C 693.07 707.91 696.30 710.74 698.72 713.27 C 702.14 716.49 705.24 720.04 708.80 723.12 C 705.32 726.71 701.74 730.23 697.89 733.43 C 693.13 729.04 689.13 723.93 684.69 719.23 C 681.33 715.15 677.38 711.58 674.21 707.35 C 677.73 704.93 680.22 701.33 683.76 698.94 C 685.06 700.29 686.42 701.61 687.75 702.96 C 688.15 699.95 688.00 696.79 689.24 693.97 C 690.49 690.82 692.79 688.28 695.08 685.86 Z" />
<path fill="#101529" opacity="0.38" d=" M 453.84 696.91 C 459.93 690.24 471.68 689.23 478.25 695.74 C 481.28 698.61 482.77 702.86 482.60 706.99 C 482.55 717.51 482.63 728.02 482.53 738.54 C 478.18 738.65 473.83 738.65 469.48 738.53 C 469.45 729.00 469.46 719.47 469.48 709.95 C 469.66 707.51 468.68 704.87 466.57 703.56 C 462.98 703.12 458.12 702.37 455.93 706.05 C 453.36 710.59 454.45 716.03 454.24 721.01 C 454.04 726.86 454.72 732.78 453.83 738.60 C 449.65 738.61 445.47 738.60 441.30 738.61 C 440.30 732.12 440.98 725.53 440.79 719.00 C 441.02 710.31 440.28 701.57 441.22 692.92 C 445.24 692.44 449.31 692.71 453.35 692.73 C 453.50 694.11 453.65 695.51 453.84 696.91 Z" />
<path fill="#101529" opacity="0.38" d=" M 526.97 693.96 C 533.52 690.95 541.31 690.57 548.18 692.73 C 553.14 694.26 557.90 698.42 558.02 703.95 C 558.67 713.19 557.99 722.48 558.32 731.73 C 558.25 734.27 561.04 735.82 560.73 738.47 C 556.01 738.74 551.28 738.47 546.56 738.55 C 546.23 737.37 545.88 736.19 545.54 735.03 C 541.36 737.38 537.05 740.17 532.01 739.70 C 525.74 740.24 519.34 736.19 517.74 730.00 C 516.90 724.76 517.64 718.58 521.98 715.01 C 528.04 709.85 536.72 711.43 543.77 708.79 C 545.42 707.81 544.99 705.09 543.97 703.77 C 540.72 702.71 536.75 701.67 533.70 703.75 C 532.25 704.96 531.77 706.85 531.24 708.58 C 527.14 708.71 523.02 708.87 518.93 708.44 C 518.89 702.64 521.55 696.58 526.97 693.96 M 534.21 720.33 C 531.17 720.93 529.58 725.05 531.36 727.60 C 532.61 730.73 536.69 729.56 539.29 729.25 C 544.19 727.97 545.93 722.60 545.22 718.05 C 541.55 718.80 537.83 719.36 534.21 720.33 Z" />
<path fill="#101529" opacity="0.38" d=" M 415.48 693.14 C 419.81 692.26 424.29 692.62 428.67 692.89 C 428.63 708.13 428.69 723.36 428.63 738.60 C 424.27 738.59 419.92 738.68 415.57 738.50 C 415.42 723.38 415.61 708.26 415.48 693.14 Z" />
<path fill="#101529" opacity="0.38" d=" M 495.26 692.88 C 499.15 692.51 503.09 692.58 507.01 692.72 C 507.31 693.06 507.91 693.74 508.21 694.08 C 508.47 704.38 508.23 714.69 508.31 725.00 C 508.22 729.52 508.57 734.08 507.97 738.58 C 503.77 738.59 499.56 738.64 495.36 738.61 C 494.27 729.12 495.05 719.53 494.82 710.00 C 494.86 704.29 494.59 698.56 495.26 692.88 Z" />
<path fill="#101529" opacity="0.38" d=" M 220.43 707.63 C 229.06 706.46 237.24 711.01 243.76 716.24 C 249.73 721.11 255.56 727.16 257.13 734.98 C 258.68 742.23 254.69 750.78 247.35 753.05 C 239.61 755.42 231.32 752.51 224.92 748.05 C 217.00 742.33 208.94 734.94 207.50 724.74 C 206.08 716.68 212.63 708.94 220.43 707.63 M 226.52 719.58 C 223.14 721.18 220.69 724.44 219.72 728.02 C 218.92 732.16 221.91 735.74 224.67 738.44 C 227.57 740.83 231.11 743.28 235.01 743.08 C 240.71 742.73 244.58 737.21 245.35 731.97 C 244.84 727.43 241.52 723.74 237.95 721.14 C 234.67 718.98 230.19 717.40 226.52 719.58 Z" />
<path fill="#101529" opacity="0.38" d=" M 663.36 721.31 C 669.81 720.48 676.54 723.82 679.82 729.43 C 670.01 737.29 659.99 744.88 649.62 751.97 C 652.07 755.96 657.58 756.53 661.45 754.36 C 664.73 752.55 668.21 750.47 670.07 747.09 C 671.30 744.93 671.11 741.87 673.59 740.61 C 677.01 738.46 679.49 734.94 683.23 733.34 C 684.75 743.25 677.55 751.53 670.26 757.15 C 663.61 761.89 655.73 766.50 647.24 765.33 C 637.79 763.71 630.91 753.00 634.01 743.77 C 636.97 735.78 643.90 730.20 650.97 725.91 C 654.73 723.56 658.96 721.94 663.36 721.31 M 646.18 747.04 C 652.82 743.45 658.84 738.76 664.69 734.02 C 662.87 732.39 660.55 731.14 658.05 731.62 C 651.22 732.99 643.71 739.34 646.18 747.04 Z" />
<path fill="#101529" opacity="0.38" d=" M 254.67 768.01 C 261.03 758.32 266.93 748.27 273.85 738.96 C 276.93 741.34 280.66 742.79 283.67 745.22 C 284.26 747.04 282.44 748.13 282.11 749.76 C 290.99 747.81 299.97 751.65 306.50 757.54 C 310.07 760.84 311.91 766.27 309.56 770.81 C 305.95 777.81 303.22 785.26 299.18 792.04 C 294.89 790.07 290.64 788.00 286.28 786.19 C 289.49 778.57 294.27 771.67 297.27 763.93 C 296.85 758.99 291.69 756.80 287.66 755.29 C 284.05 753.74 279.50 755.03 277.50 758.48 C 273.88 764.16 270.60 770.06 267.04 775.78 C 262.94 773.15 258.55 770.95 254.67 768.01 Z" />
<path fill="#101529" opacity="0.38" d=" M 611.45 751.94 C 615.17 749.12 619.58 747.41 623.57 745.02 C 623.88 758.19 624.04 771.36 623.52 784.53 C 619.47 786.52 615.44 788.53 611.32 790.37 C 609.69 791.15 607.90 790.45 606.62 789.38 C 596.99 782.47 587.38 775.49 578.34 767.83 C 578.36 767.54 578.39 766.95 578.40 766.65 C 582.63 764.95 586.88 763.32 591.08 761.55 C 598.18 767.82 605.21 774.18 612.63 780.07 C 612.84 770.67 612.21 761.28 611.45 751.94 Z" />
<path fill="#101529" opacity="0.38" d=" M 553.43 762.33 C 557.24 760.56 561.48 759.67 565.43 758.17 C 566.35 760.84 567.75 763.43 567.89 766.31 C 563.81 767.39 559.99 769.44 555.73 769.78 C 555.06 767.26 553.99 764.87 553.43 762.33 Z" />
<path fill="#101529" opacity="0.38" d=" M 321.07 775.74 C 321.51 771.55 326.44 769.82 330.05 769.39 C 338.39 769.02 346.55 771.82 354.10 775.15 C 357.81 777.01 361.67 779.44 363.51 783.31 C 364.60 788.10 362.19 792.62 361.22 797.21 C 360.23 801.48 358.17 805.60 358.43 810.08 C 359.06 811.37 359.98 812.49 360.76 813.71 C 355.30 812.38 349.92 810.73 344.47 809.38 C 344.15 807.95 343.72 806.55 343.44 805.14 C 337.37 806.73 330.92 806.42 325.10 804.06 C 320.21 802.17 314.83 799.47 312.81 794.28 C 311.31 790.43 313.34 785.86 316.96 784.04 C 319.82 782.01 323.46 782.47 326.76 782.59 C 333.81 783.65 340.58 786.63 347.77 786.70 C 351.06 787.25 351.67 782.18 348.92 781.12 C 345.34 778.98 341.23 777.12 336.97 777.46 C 335.03 777.54 333.72 779.38 331.85 779.67 C 328.14 778.69 324.78 776.73 321.07 775.74 M 327.88 790.48 C 326.84 792.20 326.37 794.09 326.37 796.11 C 330.72 800.26 337.17 801.45 342.95 800.27 C 345.93 798.95 347.49 795.78 347.72 792.66 C 341.02 792.52 334.66 789.51 327.88 790.48 Z" />
<path fill="#101529" opacity="0.38" d=" M 380.81 770.16 C 385.21 770.24 389.49 771.31 393.80 772.14 C 391.98 780.39 390.52 788.71 388.83 796.99 C 387.89 803.91 385.56 810.60 385.24 817.61 C 380.26 818.32 375.47 816.12 370.50 816.10 C 370.68 811.74 372.43 807.66 373.22 803.42 C 375.66 792.31 378.74 781.33 380.81 770.16 Z" />
<path fill="#101529" opacity="0.38" d=" M 557.34 773.82 C 561.55 772.55 565.64 770.89 569.97 770.03 C 573.66 780.97 578.69 791.47 581.96 802.54 C 577.39 803.97 572.94 805.81 568.26 806.84 C 564.73 795.80 560.71 784.91 557.34 773.82 Z" />
<path fill="#101529" opacity="0.38" d=" M 470.24 777.04 C 474.73 776.43 479.29 776.62 483.81 776.31 C 485.34 785.59 485.38 795.04 486.67 804.35 C 487.64 810.57 485.97 817.85 480.19 821.21 C 470.13 826.94 458.06 825.93 446.95 825.41 C 440.34 824.31 432.86 821.79 429.61 815.43 C 427.93 812.60 428.11 809.21 428.19 806.06 C 428.44 801.69 428.44 797.29 429.10 792.96 C 429.79 787.71 429.04 782.31 430.29 777.13 L 430.99 776.57 C 435.17 777.00 439.36 777.53 443.59 777.34 C 443.45 788.10 442.20 798.82 442.65 809.59 C 443.06 812.86 445.85 815.39 448.85 816.45 C 452.72 817.98 456.98 817.48 461.05 817.49 C 465.84 817.53 471.35 814.33 471.39 809.04 C 471.47 798.36 469.80 787.73 470.24 777.04 Z" />
<path fill="#101529" opacity="0.38" d=" M 520.37 783.31 C 527.14 780.80 535.11 778.74 541.91 782.28 C 546.93 785.21 547.54 791.49 549.11 796.52 C 550.19 801.58 552.55 806.34 552.89 811.56 C 548.19 812.57 543.67 814.52 538.81 814.63 C 537.46 807.16 535.45 799.79 533.52 792.46 C 532.23 788.45 527.47 789.21 524.18 789.43 C 520.28 789.91 515.84 791.97 514.55 795.96 C 513.99 803.96 517.42 811.54 517.77 819.48 C 512.91 819.53 508.19 821.10 503.32 820.88 C 502.56 815.16 501.77 809.44 501.10 803.71 C 500.08 798.20 499.15 792.65 499.25 787.03 C 503.28 786.54 507.24 785.65 511.29 785.25 C 511.50 786.72 511.72 788.20 511.96 789.69 C 514.68 787.46 516.92 784.51 520.37 783.31 Z" />
</g>
<g id="#fefdfbff">
<path fill="#fefdfb" opacity="1.00" d=" M 416.99 1.92 C 464.15 -1.72 511.88 2.11 557.84 13.29 C 636.27 32.16 709.30 72.67 766.95 129.07 C 823.13 183.86 864.61 253.56 885.87 329.10 C 896.58 366.62 902.05 405.54 903.00 444.53 L 903.00 461.44 C 901.84 498.15 896.90 534.79 887.17 570.24 C 862.83 660.59 809.48 742.81 736.85 801.80 C 699.06 832.63 656.24 857.29 610.59 874.46 C 550.39 897.19 485.29 906.77 421.10 902.38 C 349.00 897.62 278.16 875.10 216.51 837.43 C 150.10 797.06 94.50 739.16 56.86 671.17 C 34.92 631.70 18.96 588.90 9.70 544.70 C 3.84 517.33 0.98 489.41 0.00 461.46 L 0.00 444.53 C 1.17 391.27 11.32 338.16 30.73 288.51 C 61.15 209.87 114.19 140.17 181.90 89.93 C 249.86 39.18 332.40 8.22 416.99 1.92 M 472.53 94.60 C 472.47 96.22 472.45 97.84 472.48 99.46 C 475.41 99.54 478.33 99.69 481.26 99.87 C 481.40 98.19 481.57 96.51 481.74 94.83 C 478.67 94.74 475.60 94.67 472.53 94.60 M 440.23 104.56 C 440.13 111.00 440.71 117.46 440.18 123.88 C 438.54 126.87 434.94 127.61 431.88 128.23 C 407.22 128.99 382.75 133.18 358.84 139.16 C 355.86 139.59 352.40 140.20 349.80 138.29 C 347.56 136.88 346.99 134.08 346.18 131.76 C 344.16 124.18 341.64 116.74 339.19 109.29 C 336.51 109.96 333.85 110.70 331.19 111.47 C 331.61 115.68 333.58 119.50 334.75 123.51 C 336.32 128.17 337.71 132.89 339.52 137.46 C 340.77 141.17 344.74 142.93 348.30 143.69 C 357.07 144.81 365.51 141.64 373.96 139.85 C 388.29 137.58 402.55 134.78 417.02 133.55 C 426.41 132.85 436.61 133.55 444.98 128.52 C 454.17 133.15 465.66 133.61 475.07 129.31 C 482.42 134.10 491.48 135.03 500.04 134.28 C 501.41 133.89 502.52 134.64 503.11 135.86 C 506.04 140.68 511.84 142.47 517.00 143.76 C 523.57 145.48 531.01 144.71 536.22 140.03 C 543.98 144.87 553.41 147.98 562.58 146.20 C 567.39 145.24 570.03 140.69 571.32 136.35 C 573.76 129.27 576.72 122.37 578.90 115.20 C 576.23 114.23 573.56 113.25 570.88 112.32 C 567.51 120.48 565.14 128.99 562.16 137.28 C 561.24 140.28 558.07 142.11 555.01 141.79 C 549.55 141.71 543.16 140.54 539.65 135.95 C 538.87 131.51 540.96 126.19 537.48 122.50 C 533.62 116.81 526.36 115.49 520.03 114.63 C 514.24 113.95 507.71 115.26 503.82 119.89 C 501.40 122.56 501.52 126.67 498.87 129.17 C 492.50 130.36 484.02 130.68 479.64 125.04 C 479.09 118.56 480.73 112.17 480.64 105.70 C 477.85 105.67 475.06 105.46 472.28 105.24 C 471.31 111.61 472.01 118.22 470.45 124.48 C 467.58 128.36 462.30 127.74 458.07 127.65 C 454.55 127.46 450.09 126.68 448.59 123.00 C 448.22 116.86 448.55 110.70 448.45 104.56 C 445.71 104.64 442.96 104.65 440.23 104.56 M 589.27 119.10 C 584.53 130.87 580.29 142.84 575.30 154.51 C 577.77 155.08 580.18 156.87 582.72 156.60 C 587.63 144.93 593.20 133.50 597.75 121.68 C 594.96 120.71 592.21 119.50 589.27 119.10 M 295.12 124.49 C 295.10 127.58 296.82 130.24 298.03 132.97 C 302.45 141.69 306.23 150.70 309.84 159.78 C 312.54 159.22 315.07 158.07 317.66 157.16 C 312.77 145.44 307.23 134.01 302.90 122.08 C 300.21 122.55 297.68 123.60 295.12 124.49 M 276.33 133.59 C 279.24 138.79 282.23 143.96 284.58 149.45 C 286.39 153.54 289.98 157.66 288.44 162.43 C 286.75 165.95 283.33 168.24 279.92 169.91 C 273.92 160.16 268.29 150.20 262.66 140.23 C 260.06 141.54 257.66 143.22 255.26 144.86 C 257.17 147.72 258.89 150.69 260.48 153.74 C 264.16 160.72 269.19 166.90 272.68 173.99 C 270.39 175.34 268.13 176.74 265.85 178.09 C 266.33 179.36 266.88 180.60 267.45 181.84 C 271.42 180.10 274.98 177.59 278.79 175.56 C 284.50 172.19 290.97 169.41 294.83 163.75 C 297.48 160.62 297.37 155.89 295.49 152.41 C 291.85 144.97 287.97 137.64 284.41 130.16 C 281.52 130.79 278.91 132.23 276.33 133.59 M 239.94 140.89 C 239.12 142.59 240.27 144.38 240.59 146.06 C 239.12 147.06 237.54 148.04 237.02 149.85 C 238.32 149.63 239.72 149.62 240.82 148.77 C 246.00 145.56 251.10 142.16 256.61 139.50 C 256.62 138.92 256.64 137.78 256.65 137.20 C 252.44 138.92 248.83 142.18 244.27 142.90 C 244.51 141.46 243.62 139.15 245.38 138.43 C 247.81 136.82 251.49 137.08 253.08 134.35 C 247.82 133.62 242.82 136.65 239.94 140.89 M 441.27 137.74 C 441.28 139.35 441.28 140.96 441.27 142.58 C 443.71 142.49 446.15 142.49 448.60 142.54 C 448.55 140.92 448.54 139.30 448.55 137.69 C 446.12 137.81 443.69 137.85 441.27 137.74 M 428.34 138.48 C 428.28 139.93 428.23 141.39 428.23 142.85 C 430.94 142.85 433.67 142.84 436.39 142.67 C 436.30 141.23 436.24 139.79 436.19 138.36 C 433.57 138.35 430.96 138.48 428.34 138.48 M 637.24 146.19 C 639.98 147.52 642.46 149.61 645.61 149.86 C 645.87 148.51 647.25 146.95 646.45 145.63 C 644.49 144.33 642.48 143.00 640.23 142.29 C 638.84 143.19 638.24 144.91 637.24 146.19 M 613.53 167.60 C 617.17 174.04 624.27 176.96 630.12 180.93 C 633.94 183.53 638.25 185.31 642.02 187.99 C 650.44 193.79 658.51 200.08 666.59 206.35 C 675.71 212.76 682.92 221.44 691.76 228.20 C 695.65 230.74 697.22 235.38 700.55 238.49 C 708.79 246.64 714.53 257.81 725.52 262.74 C 725.11 266.40 726.43 269.87 728.00 273.10 C 731.07 278.68 734.89 284.16 740.30 287.70 C 747.43 293.01 758.89 287.60 760.28 279.06 C 761.54 271.31 757.44 264.00 752.97 258.01 C 749.44 253.99 744.70 249.86 738.99 250.33 C 733.38 249.77 729.59 255.68 724.10 255.35 C 718.01 254.02 714.72 248.27 711.03 243.83 C 708.60 240.42 705.24 237.79 703.03 234.22 C 709.44 235.27 715.00 239.51 721.54 239.77 C 723.42 236.59 724.40 232.88 723.58 229.20 C 721.30 220.00 715.77 211.54 707.88 206.20 C 702.24 202.22 695.63 198.17 688.42 199.61 C 686.50 200.40 683.33 201.19 684.27 203.96 C 685.41 209.44 688.33 214.43 689.05 220.04 C 684.00 216.10 679.68 211.35 674.66 207.39 C 666.66 200.29 657.88 194.14 649.36 187.69 C 646.70 185.74 643.43 184.62 641.20 182.13 C 646.03 176.20 649.84 169.51 653.90 163.04 C 649.36 160.22 644.96 157.18 640.25 154.67 C 635.49 152.14 630.68 148.80 625.04 149.15 C 615.92 148.44 609.02 159.77 613.53 167.60 M 652.89 149.80 C 651.99 151.16 651.06 152.51 650.33 153.98 C 652.61 155.35 654.89 156.74 657.13 158.20 C 658.19 156.80 659.38 155.42 659.81 153.68 C 657.44 152.48 655.19 151.10 652.89 149.80 M 226.95 173.77 C 225.88 172.72 225.17 170.32 223.33 170.63 C 221.18 171.91 219.13 173.41 217.39 175.22 C 217.36 176.82 219.06 177.84 219.79 179.15 C 216.17 183.10 211.80 187.38 211.41 193.02 C 210.50 200.45 217.53 205.07 221.84 210.01 C 217.27 213.54 213.38 219.30 207.06 219.37 C 202.31 217.24 199.52 212.54 195.75 209.16 C 191.80 205.81 188.58 201.73 184.92 198.08 C 183.32 199.40 181.68 200.69 180.25 202.19 C 179.29 203.14 178.56 205.05 179.96 205.99 C 183.99 209.65 188.21 213.14 191.72 217.33 C 194.15 220.31 197.85 222.20 199.65 225.68 C 200.93 230.09 197.37 233.69 194.75 236.74 C 192.24 239.46 189.10 242.65 185.08 242.28 C 179.38 238.97 175.31 233.44 169.61 230.15 C 168.44 232.61 164.93 234.60 165.48 237.49 C 169.47 241.55 174.31 244.67 178.38 248.65 C 180.81 251.48 178.97 255.58 177.13 258.25 C 166.68 272.75 157.23 287.96 148.94 303.81 C 145.55 309.94 143.64 316.73 140.16 322.82 C 132.95 320.06 125.92 316.85 119.06 313.32 C 115.59 321.78 111.85 330.17 109.37 338.98 C 108.07 344.26 107.70 350.36 110.89 355.06 C 112.55 358.05 115.94 359.36 119.01 360.39 C 124.47 361.35 129.13 357.18 131.96 352.97 C 136.99 345.38 139.12 336.36 142.82 328.13 C 149.81 309.51 160.15 292.42 170.44 275.49 C 175.91 266.57 183.98 258.91 186.27 248.37 C 195.64 243.92 203.42 235.53 206.65 225.63 C 217.54 222.34 224.14 212.30 233.38 206.30 C 241.47 199.25 250.40 193.27 259.19 187.15 C 254.59 181.36 251.68 173.93 245.40 169.69 C 238.88 167.93 232.51 170.54 226.95 173.77 M 418.00 176.19 C 415.98 176.55 413.91 176.48 411.89 176.82 C 384.58 181.19 357.63 188.66 332.55 200.43 C 273.78 227.50 224.61 275.07 196.21 333.28 C 189.63 345.34 185.27 358.41 180.44 371.22 C 173.93 391.96 169.40 413.37 167.51 435.00 C 167.70 438.69 167.18 442.32 166.57 445.94 C 166.47 454.97 166.34 464.01 166.63 473.03 C 168.03 478.41 166.88 484.05 168.27 489.44 C 168.38 496.31 170.25 502.98 170.92 509.81 C 173.76 522.07 176.01 534.53 179.82 546.54 C 184.21 557.10 187.26 568.20 192.50 578.40 C 195.80 584.58 198.42 591.09 201.81 597.22 C 207.60 606.39 212.73 615.99 219.24 624.70 C 224.54 632.31 230.45 639.46 236.34 646.61 C 379.77 646.57 523.19 646.58 666.62 646.61 C 704.64 603.00 728.81 547.53 734.90 490.04 C 736.26 483.78 734.73 477.26 736.33 471.03 C 736.61 463.02 736.65 454.98 736.29 446.98 C 735.06 442.45 735.92 437.72 735.19 433.15 C 734.12 429.24 734.94 425.11 733.84 421.21 C 732.80 409.89 730.04 398.79 727.26 387.78 C 716.95 347.63 697.54 309.87 671.02 278.02 C 646.19 247.71 614.89 222.78 579.97 205.03 C 553.37 191.37 524.47 182.35 495.01 177.53 C 490.60 177.66 486.37 176.32 482.06 175.63 C 476.72 175.17 471.29 175.93 466.03 174.64 C 454.69 174.36 443.33 174.43 431.99 174.67 C 427.40 175.88 422.59 175.04 418.00 176.19 M 194.10 253.04 C 192.96 254.64 190.68 256.33 191.47 258.53 C 192.34 259.36 193.21 260.63 194.58 260.48 C 196.44 258.52 198.56 256.35 198.78 253.50 C 197.35 253.13 195.36 251.51 194.10 253.04 M 182.78 268.78 C 183.99 269.80 185.15 270.90 186.47 271.78 C 188.05 269.39 190.29 267.30 190.89 264.40 C 189.68 263.77 188.68 262.69 187.30 262.45 C 185.28 264.12 184.01 266.51 182.78 268.78 M 777.73 287.88 C 770.64 291.42 764.11 295.98 756.84 299.17 C 752.75 300.96 751.46 305.94 751.70 310.02 C 752.29 319.74 757.89 328.06 760.70 337.18 C 764.78 346.29 766.85 356.06 769.93 365.52 C 773.05 364.57 776.33 363.85 779.05 361.95 C 783.78 358.89 786.05 353.28 787.08 347.95 C 788.49 338.19 786.23 328.31 782.69 319.24 C 781.51 319.59 780.33 319.98 779.18 320.39 C 781.06 328.01 783.60 335.95 781.72 343.84 C 780.60 348.96 776.79 354.19 771.32 354.97 C 768.59 346.33 765.42 337.83 762.38 329.30 C 760.57 323.90 756.91 318.86 757.40 312.93 C 757.00 310.05 759.40 307.95 761.71 306.75 C 769.25 302.79 776.81 298.84 784.64 295.47 C 783.54 292.71 782.06 290.10 781.09 287.29 C 779.95 287.37 778.74 287.30 777.73 287.88 M 108.87 309.41 C 108.06 312.38 105.63 315.23 106.50 318.44 C 107.67 319.08 108.97 319.44 110.26 319.77 C 111.17 317.03 112.22 314.32 113.60 311.78 C 112.44 310.19 110.87 309.22 108.87 309.41 M 102.37 325.29 C 101.40 328.24 100.06 331.20 100.29 334.39 C 101.63 334.65 102.91 335.12 104.19 335.61 C 105.18 332.30 106.78 329.10 106.76 325.57 C 105.30 325.46 103.84 325.36 102.37 325.29 M 751.34 342.37 C 752.12 345.16 753.14 347.87 754.05 350.62 C 755.64 350.19 757.24 349.84 758.84 349.40 C 758.04 346.67 757.09 344.00 756.23 341.30 C 754.58 341.57 752.95 341.94 751.34 342.37 M 774.68 517.15 C 774.45 523.28 771.57 529.35 772.56 535.43 C 779.88 541.38 787.04 547.55 793.73 554.20 C 784.31 557.07 774.55 558.92 764.88 560.80 C 763.65 566.27 761.67 571.52 759.95 576.85 C 763.10 576.69 766.21 576.11 769.22 575.17 C 779.11 572.84 788.91 570.09 798.47 566.64 C 800.09 566.24 802.64 565.60 803.37 567.68 C 806.70 572.33 802.77 577.94 802.81 582.80 C 804.73 583.38 807.20 585.25 809.09 584.16 C 811.20 577.60 814.00 571.00 813.61 563.96 C 814.25 558.37 809.89 554.21 806.89 550.07 C 796.87 538.42 785.85 527.68 774.68 517.15 M 99.16 529.08 C 99.84 534.23 101.11 539.28 101.96 544.40 C 102.40 545.27 102.17 547.45 103.67 547.15 C 114.26 544.29 124.98 541.86 135.68 539.47 C 127.88 553.88 120.05 568.33 113.70 583.47 C 112.93 585.00 113.69 586.64 114.14 588.14 C 115.68 592.76 117.38 597.34 119.13 601.88 C 122.86 601.56 126.17 599.71 129.58 598.33 C 140.63 593.64 151.75 589.12 162.82 584.48 C 161.49 579.83 159.79 575.26 157.95 570.80 C 147.45 574.00 137.29 578.27 126.86 581.73 C 128.63 576.28 131.50 571.30 133.97 566.16 C 138.15 557.53 142.85 549.16 147.80 540.95 C 149.36 538.81 148.50 536.02 147.97 533.68 C 146.75 529.62 146.41 525.40 145.64 521.26 C 144.52 521.18 143.39 521.22 142.27 521.37 C 127.88 523.78 113.60 526.94 99.16 529.08 M 757.82 582.25 C 757.12 585.23 756.02 588.14 754.32 590.71 C 751.57 589.20 748.75 587.68 745.62 587.19 C 744.05 591.56 742.29 595.87 740.43 600.12 C 743.13 601.75 745.92 603.24 748.88 604.37 C 748.11 606.82 746.64 609.05 746.27 611.63 C 747.21 613.29 749.53 613.60 751.07 614.65 C 752.14 612.12 753.28 609.61 754.68 607.25 C 761.90 610.38 768.76 614.32 776.10 617.14 C 780.37 617.44 782.98 613.06 784.76 609.75 C 787.17 604.55 789.62 599.26 790.85 593.63 C 788.66 593.06 786.51 592.38 784.28 592.08 C 783.38 595.09 782.16 598.00 780.71 600.80 C 773.57 599.45 767.25 595.37 760.39 593.06 C 761.68 589.84 762.86 586.58 763.85 583.25 C 761.89 582.66 759.87 582.28 757.82 582.25 M 146.13 605.42 C 147.91 609.67 149.85 613.86 151.96 617.97 C 153.57 619.27 156.20 618.70 157.63 620.41 C 161.51 624.68 164.57 630.37 163.43 636.32 C 162.55 636.35 160.78 636.41 159.90 636.44 C 152.41 628.86 149.43 617.75 140.94 611.08 C 138.38 608.78 134.65 609.14 131.52 609.68 C 126.58 612.49 126.92 618.75 127.67 623.60 C 129.86 633.00 135.59 641.59 143.80 646.78 C 142.93 648.40 141.40 650.46 142.77 652.27 C 145.60 656.91 148.17 661.74 151.40 666.12 C 151.71 664.09 151.14 661.45 153.15 660.13 C 158.93 655.80 165.37 652.44 171.13 648.11 C 174.90 645.47 173.62 640.31 173.38 636.43 C 170.83 627.87 166.69 619.78 161.42 612.59 C 157.86 608.04 152.35 603.06 146.13 605.42 M 730.77 613.28 C 729.05 617.55 725.96 621.23 724.95 625.78 C 727.16 627.28 729.40 628.85 731.96 629.70 C 733.42 625.36 736.97 621.77 737.73 617.27 C 736.20 615.14 733.09 614.47 730.77 613.28 M 741.96 619.03 C 739.79 623.33 737.00 627.32 735.22 631.79 C 736.12 632.91 737.54 633.44 738.73 634.22 C 747.63 639.27 756.20 644.96 765.24 649.71 C 767.36 644.86 770.78 640.45 772.40 635.48 C 762.36 629.81 752.00 624.70 741.96 619.03 M 721.45 654.44 C 715.30 660.41 709.87 667.35 706.71 675.38 C 705.74 679.44 704.82 684.53 708.28 687.71 C 710.73 690.62 715.36 690.14 718.24 688.12 C 724.20 684.29 729.31 679.29 734.14 674.13 C 736.52 671.77 738.95 668.61 742.73 669.16 C 743.53 675.23 739.00 680.09 735.12 684.13 C 732.85 686.59 729.71 687.95 726.35 687.43 C 723.49 691.23 720.34 694.82 717.02 698.23 C 719.25 699.92 722.17 700.98 724.94 699.96 C 732.87 697.45 738.67 690.97 743.56 684.55 C 748.91 677.37 754.15 668.70 752.41 659.36 C 751.08 654.56 744.64 652.89 740.82 655.91 C 734.89 660.18 730.26 665.97 725.00 671.01 C 722.60 673.16 720.36 676.21 716.95 676.60 C 716.62 676.21 715.96 675.43 715.62 675.03 C 715.56 670.30 719.28 666.52 722.28 663.23 C 724.43 660.46 729.01 661.85 730.52 658.44 C 732.36 655.07 735.71 652.29 735.97 648.26 C 730.33 647.34 725.26 650.65 721.45 654.44 M 178.12 652.98 C 178.71 655.36 180.38 657.23 181.77 659.18 C 175.70 664.03 169.09 668.19 163.01 673.03 C 160.14 675.33 161.55 679.53 162.88 682.34 C 165.64 687.48 169.54 691.91 173.07 696.54 C 175.28 695.50 177.19 693.86 178.84 692.07 C 176.66 689.94 174.96 687.41 173.22 684.93 C 178.21 679.61 184.52 675.71 190.11 671.03 C 192.07 673.18 193.91 675.46 195.58 677.84 C 197.62 677.22 199.00 675.52 200.37 674.00 C 198.53 671.72 196.69 669.43 194.94 667.08 C 197.64 665.21 200.09 663.01 202.77 661.12 C 200.32 658.47 198.34 655.45 196.31 652.48 C 195.68 651.76 195.33 650.50 194.21 650.46 C 191.49 651.67 189.62 654.39 186.85 655.47 C 184.39 654.46 184.29 649.79 181.18 650.28 C 180.04 650.94 178.53 651.62 178.12 652.98 M 215.65 674.67 C 214.00 676.24 210.55 677.59 211.44 680.39 C 213.99 683.14 216.15 686.51 219.22 688.67 C 221.97 688.22 223.53 685.15 225.40 683.28 C 223.05 681.02 221.06 678.45 218.92 676.01 C 218.05 675.17 216.97 673.42 215.65 674.67 M 415.56 676.56 C 415.39 680.57 415.46 684.60 415.46 688.62 C 419.75 689.06 424.05 689.42 428.38 689.21 C 428.92 684.98 428.69 680.69 428.62 676.44 C 424.27 676.57 419.91 676.50 415.56 676.56 M 495.28 676.47 C 494.43 680.48 494.57 684.64 495.03 688.69 C 499.30 689.05 504.63 690.49 508.31 687.92 C 508.45 684.11 508.74 680.23 508.03 676.48 C 503.77 676.55 499.52 676.54 495.28 676.47 M 343.49 677.30 C 343.56 697.70 343.38 718.11 343.58 738.52 C 347.93 738.71 352.28 738.58 356.64 738.60 C 356.89 724.91 356.43 711.20 356.88 697.52 C 358.93 699.76 358.76 703.07 359.50 705.87 C 361.86 716.76 364.34 727.62 366.56 738.55 C 371.14 738.67 375.73 738.61 380.31 738.59 C 383.18 724.91 386.18 711.21 389.48 697.63 C 389.75 700.07 390.12 702.53 390.01 705.00 C 389.49 710.66 390.46 716.32 390.18 721.99 C 390.50 727.54 389.30 733.09 390.28 738.61 C 394.50 738.63 398.72 738.61 402.94 738.58 C 403.62 733.08 403.10 727.52 403.25 722.00 C 403.05 707.09 403.68 692.14 402.97 677.25 C 397.07 676.34 391.04 676.76 385.10 676.84 C 384.74 677.03 384.02 677.41 383.66 677.59 C 381.04 687.82 379.09 698.21 376.54 708.45 C 375.39 712.62 375.17 717.05 373.36 721.03 C 370.18 706.44 366.68 691.92 363.52 677.32 C 356.94 676.35 350.09 676.42 343.49 677.30 M 199.17 689.14 C 193.48 694.47 187.46 699.44 181.69 704.68 C 181.64 704.94 181.53 705.44 181.47 705.70 C 184.48 709.42 188.00 712.70 191.15 716.30 C 199.93 708.57 208.11 700.13 216.54 692.02 C 213.70 688.59 210.40 685.58 207.71 682.05 C 204.57 684.03 201.97 686.72 199.17 689.14 M 695.08 685.86 C 692.79 688.28 690.49 690.82 689.24 693.97 C 688.00 696.79 688.15 699.95 687.75 702.96 C 686.42 701.61 685.06 700.29 683.76 698.94 C 680.22 701.33 677.73 704.93 674.21 707.35 C 677.38 711.58 681.33 715.15 684.69 719.23 C 689.13 723.93 693.13 729.04 697.89 733.43 C 701.74 730.23 705.32 726.71 708.80 723.12 C 705.24 720.04 702.14 716.49 698.72 713.27 C 696.30 710.74 693.07 707.91 693.56 704.05 C 694.59 698.84 698.62 695.00 702.33 691.51 C 699.87 689.68 697.73 687.42 695.08 685.86 M 453.84 696.91 C 453.65 695.51 453.50 694.11 453.35 692.73 C 449.31 692.71 445.24 692.44 441.22 692.92 C 440.28 701.57 441.02 710.31 440.79 719.00 C 440.98 725.53 440.30 732.12 441.30 738.61 C 445.47 738.60 449.65 738.61 453.83 738.60 C 454.72 732.78 454.04 726.86 454.24 721.01 C 454.45 716.03 453.36 710.59 455.93 706.05 C 458.12 702.37 462.98 703.12 466.57 703.56 C 468.68 704.87 469.66 707.51 469.48 709.95 C 469.46 719.47 469.45 729.00 469.48 738.53 C 473.83 738.65 478.18 738.65 482.53 738.54 C 482.63 728.02 482.55 717.51 482.60 706.99 C 482.77 702.86 481.28 698.61 478.25 695.74 C 471.68 689.23 459.93 690.24 453.84 696.91 M 526.97 693.96 C 521.55 696.58 518.89 702.64 518.93 708.44 C 523.02 708.87 527.14 708.71 531.24 708.58 C 531.77 706.85 532.25 704.96 533.70 703.75 C 536.75 701.67 540.72 702.71 543.97 703.77 C 544.99 705.09 545.42 707.81 543.77 708.79 C 536.72 711.43 528.04 709.85 521.98 715.01 C 517.64 718.58 516.90 724.76 517.74 730.00 C 519.34 736.19 525.74 740.24 532.01 739.70 C 537.05 740.17 541.36 737.38 545.54 735.03 C 545.88 736.19 546.23 737.37 546.56 738.55 C 551.28 738.47 556.01 738.74 560.73 738.47 C 561.04 735.82 558.25 734.27 558.32 731.73 C 557.99 722.48 558.67 713.19 558.02 703.95 C 557.90 698.42 553.14 694.26 548.18 692.73 C 541.31 690.57 533.52 690.95 526.97 693.96 M 415.48 693.14 C 415.61 708.26 415.42 723.38 415.57 738.50 C 419.92 738.68 424.27 738.59 428.63 738.60 C 428.69 723.36 428.63 708.13 428.67 692.89 C 424.29 692.62 419.81 692.26 415.48 693.14 M 495.26 692.88 C 494.59 698.56 494.86 704.29 494.82 710.00 C 495.05 719.53 494.27 729.12 495.36 738.61 C 499.56 738.64 503.77 738.59 507.97 738.58 C 508.57 734.08 508.22 729.52 508.31 725.00 C 508.23 714.69 508.47 704.38 508.21 694.08 C 507.91 693.74 507.31 693.06 507.01 692.72 C 503.09 692.58 499.15 692.51 495.26 692.88 M 220.43 707.63 C 212.63 708.94 206.08 716.68 207.50 724.74 C 208.94 734.94 217.00 742.33 224.92 748.05 C 231.32 752.51 239.61 755.42 247.35 753.05 C 254.69 750.78 258.68 742.23 257.13 734.98 C 255.56 727.16 249.73 721.11 243.76 716.24 C 237.24 711.01 229.06 706.46 220.43 707.63 M 663.36 721.31 C 658.96 721.94 654.73 723.56 650.97 725.91 C 643.90 730.20 636.97 735.78 634.01 743.77 C 630.91 753.00 637.79 763.71 647.24 765.33 C 655.73 766.50 663.61 761.89 670.26 757.15 C 677.55 751.53 684.75 743.25 683.23 733.34 C 679.49 734.94 677.01 738.46 673.59 740.61 C 671.11 741.87 671.30 744.93 670.07 747.09 C 668.21 750.47 664.73 752.55 661.45 754.36 C 657.58 756.53 652.07 755.96 649.62 751.97 C 659.99 744.88 670.01 737.29 679.82 729.43 C 676.54 723.82 669.81 720.48 663.36 721.31 M 254.67 768.01 C 258.55 770.95 262.94 773.15 267.04 775.78 C 270.60 770.06 273.88 764.16 277.50 758.48 C 279.50 755.03 284.05 753.74 287.66 755.29 C 291.69 756.80 296.85 758.99 297.27 763.93 C 294.27 771.67 289.49 778.57 286.28 786.19 C 290.64 788.00 294.89 790.07 299.18 792.04 C 303.22 785.26 305.95 777.81 309.56 770.81 C 311.91 766.27 310.07 760.84 306.50 757.54 C 299.97 751.65 290.99 747.81 282.11 749.76 C 282.44 748.13 284.26 747.04 283.67 745.22 C 280.66 742.79 276.93 741.34 273.85 738.96 C 266.93 748.27 261.03 758.32 254.67 768.01 M 611.45 751.94 C 612.21 761.28 612.84 770.67 612.63 780.07 C 605.21 774.18 598.18 767.82 591.08 761.55 C 586.88 763.32 582.63 764.95 578.40 766.65 C 578.39 766.95 578.36 767.54 578.34 767.83 C 587.38 775.49 596.99 782.47 606.62 789.38 C 607.90 790.45 609.69 791.15 611.32 790.37 C 615.44 788.53 619.47 786.52 623.52 784.53 C 624.04 771.36 623.88 758.19 623.57 745.02 C 619.58 747.41 615.17 749.12 611.45 751.94 M 553.43 762.33 C 553.99 764.87 555.06 767.26 555.73 769.78 C 559.99 769.44 563.81 767.39 567.89 766.31 C 567.75 763.43 566.35 760.84 565.43 758.17 C 561.48 759.67 557.24 760.56 553.43 762.33 M 321.07 775.74 C 324.78 776.73 328.14 778.69 331.85 779.67 C 333.72 779.38 335.03 777.54 336.97 777.46 C 341.23 777.12 345.34 778.98 348.92 781.12 C 351.67 782.18 351.06 787.25 347.77 786.70 C 340.58 786.63 333.81 783.65 326.76 782.59 C 323.46 782.47 319.82 782.01 316.96 784.04 C 313.34 785.86 311.31 790.43 312.81 794.28 C 314.83 799.47 320.21 802.17 325.10 804.06 C 330.92 806.42 337.37 806.73 343.44 805.14 C 343.72 806.55 344.15 807.95 344.47 809.38 C 349.92 810.73 355.30 812.38 360.76 813.71 C 359.98 812.49 359.06 811.37 358.43 810.08 C 358.17 805.60 360.23 801.48 361.22 797.21 C 362.19 792.62 364.60 788.10 363.51 783.31 C 361.67 779.44 357.81 777.01 354.10 775.15 C 346.55 771.82 338.39 769.02 330.05 769.39 C 326.44 769.82 321.51 771.55 321.07 775.74 M 380.81 770.16 C 378.74 781.33 375.66 792.31 373.22 803.42 C 372.43 807.66 370.68 811.74 370.50 816.10 C 375.47 816.12 380.26 818.32 385.24 817.61 C 385.56 810.60 387.89 803.91 388.83 796.99 C 390.52 788.71 391.98 780.39 393.80 772.14 C 389.49 771.31 385.21 770.24 380.81 770.16 M 557.34 773.82 C 560.71 784.91 564.73 795.80 568.26 806.84 C 572.94 805.81 577.39 803.97 581.96 802.54 C 578.69 791.47 573.66 780.97 569.97 770.03 C 565.64 770.89 561.55 772.55 557.34 773.82 M 470.24 777.04 C 469.80 787.73 471.47 798.36 471.39 809.04 C 471.35 814.33 465.84 817.53 461.05 817.49 C 456.98 817.48 452.72 817.98 448.85 816.45 C 445.85 815.39 443.06 812.86 442.65 809.59 C 442.20 798.82 443.45 788.10 443.59 777.34 C 439.36 777.53 435.17 777.00 430.99 776.57 L 430.29 777.13 C 429.04 782.31 429.79 787.71 429.10 792.96 C 428.44 797.29 428.44 801.69 428.19 806.06 C 428.11 809.21 427.93 812.60 429.61 815.43 C 432.86 821.79 440.34 824.31 446.95 825.41 C 458.06 825.93 470.13 826.94 480.19 821.21 C 485.97 817.85 487.64 810.57 486.67 804.35 C 485.38 795.04 485.34 785.59 483.81 776.31 C 479.29 776.62 474.73 776.43 470.24 777.04 M 520.37 783.31 C 516.92 784.51 514.68 787.46 511.96 789.69 C 511.72 788.20 511.50 786.72 511.29 785.25 C 507.24 785.65 503.28 786.54 499.25 787.03 C 499.15 792.65 500.08 798.20 501.10 803.71 C 501.77 809.44 502.56 815.16 503.32 820.88 C 508.19 821.10 512.91 819.53 517.77 819.48 C 517.42 811.54 513.99 803.96 514.55 795.96 C 515.84 791.97 520.28 789.91 524.18 789.43 C 527.47 789.21 532.23 788.45 533.52 792.46 C 535.45 799.79 537.46 807.16 538.81 814.63 C 543.67 814.52 548.19 812.57 552.89 811.56 C 552.55 806.34 550.19 801.58 549.11 796.52 C 547.54 791.49 546.93 785.21 541.91 782.28 C 535.11 778.74 527.14 780.80 520.37 783.31 Z" />
<path fill="#fefdfb" opacity="1.00" d=" M 514.44 119.49 C 519.09 117.22 525.22 118.65 529.25 121.74 C 532.48 124.10 531.68 128.50 531.39 131.96 C 530.21 135.65 527.46 139.99 523.05 139.72 C 519.48 139.76 515.37 140.09 512.54 137.47 C 507.60 132.57 508.85 123.36 514.44 119.49 Z" />
<path fill="#fefdfb" opacity="1.00" d=" M 620.39 166.83 C 618.46 161.33 623.55 155.37 629.01 154.90 C 635.03 155.12 639.54 159.57 644.74 162.02 C 641.68 167.51 638.02 172.63 634.71 177.96 C 631.54 176.87 628.89 174.76 626.04 173.09 C 623.64 171.63 620.87 169.82 620.39 166.83 Z" />
<path fill="#fefdfb" opacity="1.00" d=" M 230.03 177.25 C 233.41 175.12 238.72 173.83 241.65 177.32 C 244.66 180.66 247.09 184.47 249.82 188.05 C 247.27 189.98 244.66 191.83 242.00 193.61 C 238.14 188.06 233.45 183.08 230.03 177.25 Z" />
<path fill="#fefdfb" opacity="1.00" d=" M 220.65 184.51 C 221.20 183.33 223.02 182.91 223.83 184.07 C 227.83 188.65 231.35 193.64 235.37 198.21 C 233.54 201.03 230.61 202.79 227.96 204.72 C 224.92 200.75 221.08 197.39 218.56 193.03 C 218.01 190.04 218.35 186.73 220.65 184.51 Z" />
<path fill="#fefdfb" opacity="1.00" d=" M 424.08 189.14 C 429.62 187.84 435.42 189.18 440.95 187.67 C 447.97 187.43 455.02 187.47 462.05 187.65 C 467.81 189.16 473.84 187.83 479.61 189.29 C 485.82 189.44 491.84 191.24 498.04 191.61 C 532.44 197.48 565.52 210.49 595.18 228.81 C 645.03 260.03 684.58 307.65 705.29 362.77 C 709.89 374.14 713.44 385.95 716.12 397.91 C 716.65 402.80 718.33 407.44 719.35 412.21 C 719.36 417.13 720.52 421.91 721.29 426.75 C 721.69 429.82 721.26 432.97 722.01 436.01 C 723.19 441.60 721.85 447.42 723.19 453.00 C 723.59 458.52 723.76 464.16 722.68 469.62 C 722.28 474.07 722.94 478.59 722.04 483.00 C 721.00 487.25 722.02 491.72 720.88 495.97 C 719.72 500.89 719.34 505.93 718.47 510.91 C 715.13 526.86 711.19 542.78 704.92 557.87 C 702.13 566.34 697.89 574.20 694.21 582.30 C 689.96 589.70 686.57 597.60 681.55 604.56 C 675.69 613.99 668.89 622.78 662.05 631.52 C 523.36 631.60 384.67 631.51 245.98 631.56 C 243.92 631.44 241.27 632.17 239.96 630.07 C 226.43 613.91 215.30 595.83 206.25 576.83 C 192.35 548.45 184.17 517.40 181.17 486.02 C 179.54 478.45 181.41 470.57 179.74 463.01 C 179.20 459.99 179.79 456.97 180.33 454.01 C 180.64 448.15 180.29 442.27 180.62 436.41 C 181.33 431.07 182.49 425.78 182.60 420.39 C 185.10 406.44 187.57 392.40 192.04 378.91 C 203.52 341.72 223.35 307.26 249.19 278.19 C 270.19 255.12 294.80 235.13 322.38 220.45 C 353.71 203.32 388.54 192.43 424.08 189.14 M 423.54 195.24 C 419.53 195.62 415.47 195.35 411.56 196.49 C 393.41 199.13 375.60 204.04 358.38 210.34 C 348.61 214.48 338.71 218.33 329.32 223.29 C 296.17 240.72 266.59 264.98 243.33 294.35 C 232.32 308.77 221.92 323.80 214.18 340.27 C 202.20 363.40 194.10 388.48 189.51 414.09 C 189.12 419.43 187.28 424.59 187.38 429.99 C 186.05 435.96 186.97 442.13 185.61 448.10 C 185.83 457.07 184.81 466.17 186.20 475.05 C 188.83 530.04 209.89 584.01 244.78 626.63 C 270.85 626.40 296.93 626.60 323.00 626.54 C 434.03 626.55 545.07 626.50 656.10 626.56 C 658.15 626.84 659.28 624.80 660.59 623.61 C 667.10 616.24 672.15 607.75 677.67 599.65 C 691.52 577.06 702.26 552.50 708.83 526.81 C 713.76 508.93 715.70 490.41 717.44 472.05 C 717.10 461.39 718.29 450.60 716.55 440.05 C 716.70 433.01 714.73 426.17 714.26 419.17 C 704.34 353.39 668.48 291.89 616.08 250.88 C 585.93 226.86 550.41 209.76 513.01 200.62 C 509.26 200.52 505.83 198.76 502.13 198.47 C 498.37 198.17 494.80 196.75 491.05 196.47 C 483.41 195.25 475.67 194.88 468.02 193.62 C 457.68 193.47 447.31 193.34 436.97 193.65 C 432.57 194.86 427.94 194.04 423.54 195.24 Z" />
<path fill="#fefdfb" opacity="1.00" d=" M 447.44 202.57 C 452.41 201.36 457.81 204.09 459.50 208.96 C 459.64 211.26 459.86 213.67 459.21 215.92 C 457.54 219.31 453.89 222.04 449.99 221.62 C 444.98 221.89 440.04 217.05 440.38 212.00 C 440.03 207.70 443.77 204.03 447.44 202.57 Z" />
<path fill="#fefdfb" opacity="1.00" d=" M 691.20 207.25 C 695.95 205.69 701.51 206.42 705.47 209.57 C 711.53 213.93 716.42 220.44 717.35 228.00 C 717.17 229.76 716.13 231.26 715.17 232.68 C 708.99 230.43 702.61 228.85 696.42 226.65 C 695.39 219.99 692.22 213.90 691.20 207.25 Z" />
<path fill="#fefdfb" opacity="1.00" d=" M 423.40 219.39 C 428.80 216.16 436.32 220.87 436.50 227.00 C 436.93 233.09 429.19 238.83 423.72 235.27 C 420.19 233.27 417.59 229.18 418.64 225.04 C 419.84 222.89 421.29 220.74 423.40 219.39 Z" />
<path fill="#fefdfb" opacity="1.00" d=" M 446.52 229.99 C 446.18 224.91 453.62 222.27 456.45 226.56 C 458.77 228.91 456.68 231.91 455.30 234.11 C 456.67 237.34 457.64 240.74 459.21 243.90 C 462.01 245.39 465.84 243.43 468.73 245.26 C 474.68 247.76 479.06 253.85 478.54 260.45 C 481.29 261.35 484.18 261.66 487.06 261.89 C 488.83 259.94 490.58 257.83 493.08 256.80 C 498.62 255.18 505.36 260.04 504.68 266.00 C 505.23 270.89 500.63 275.00 496.03 275.42 C 492.33 275.43 488.47 273.27 487.23 269.64 C 486.21 267.76 486.83 265.18 485.04 263.72 C 482.94 263.48 480.85 263.17 478.85 262.45 C 477.26 265.23 475.32 267.87 474.23 270.90 C 474.79 272.73 476.15 274.18 477.41 275.57 C 480.26 275.85 483.14 275.11 485.97 275.69 C 489.00 277.30 492.07 280.27 491.63 283.99 C 492.21 287.89 489.36 291.58 485.88 293.01 C 481.12 294.82 475.39 291.70 473.98 286.86 C 472.45 283.34 474.99 280.02 476.57 277.05 C 475.04 275.49 473.62 273.82 472.18 272.18 C 469.28 273.43 466.33 274.52 463.40 275.69 C 463.53 277.45 463.45 279.22 463.67 280.98 C 465.27 282.66 467.84 282.91 469.40 284.64 C 470.80 286.17 471.85 288.04 472.43 290.04 C 472.33 295.90 465.97 301.48 460.12 299.17 C 454.72 297.35 452.24 289.51 456.31 285.29 C 457.77 283.17 460.46 282.75 462.49 281.38 C 462.65 279.29 462.57 277.19 462.57 275.10 C 459.63 274.33 456.80 273.28 453.95 272.26 C 452.59 274.60 451.08 276.86 449.40 278.98 C 450.63 281.46 452.06 284.08 451.53 286.96 C 450.33 290.93 446.25 294.18 442.00 293.41 C 439.34 292.44 437.24 290.28 435.77 287.91 C 434.46 283.97 436.55 279.63 440.10 277.68 C 442.73 276.68 445.67 278.03 448.32 277.30 C 449.79 275.07 452.53 273.04 452.57 270.24 C 451.17 268.58 450.40 264.76 447.62 265.55 C 444.76 266.56 440.58 267.32 440.46 271.11 C 439.18 277.01 430.35 277.15 427.37 272.54 C 423.69 267.36 428.86 259.77 435.04 260.55 C 437.48 261.73 439.38 263.72 440.99 265.86 C 443.17 265.12 445.35 264.39 447.43 263.41 C 449.16 262.09 448.30 259.75 448.42 257.92 C 446.20 255.64 442.72 255.42 439.90 254.19 C 437.90 255.98 436.11 259.08 433.01 258.54 C 429.52 258.85 426.86 255.18 426.50 252.03 C 427.09 248.14 430.85 244.38 435.01 245.48 C 437.92 246.48 439.29 249.50 440.09 252.24 C 442.92 252.83 445.64 253.82 448.31 254.91 C 449.51 253.45 450.42 251.79 451.09 250.02 C 449.06 248.03 447.02 246.03 444.83 244.22 C 442.20 244.31 439.03 245.22 437.04 242.95 C 433.37 239.87 435.69 233.71 439.99 232.47 C 442.83 232.39 445.33 234.54 446.46 237.04 C 446.81 239.08 445.81 241.39 446.75 243.28 C 448.70 244.90 450.41 247.17 452.95 247.85 C 454.77 247.48 456.14 246.09 457.66 245.11 C 456.25 241.93 455.03 238.67 453.56 235.53 C 450.56 234.73 447.08 233.52 446.52 229.99 Z" />
<path fill="#fefdfb" opacity="1.00" d=" M 411.42 244.39 C 414.94 242.62 420.36 242.56 422.92 246.08 C 425.11 248.13 424.63 251.36 424.54 254.07 C 423.22 257.57 419.68 260.15 415.97 260.47 C 413.08 259.67 409.86 258.35 408.61 255.40 C 406.22 251.72 408.20 246.84 411.42 244.39 Z" />
<path fill="#fefdfb" opacity="1.00" d=" M 740.22 257.90 C 743.79 256.52 747.57 258.34 750.00 261.02 C 753.08 264.58 755.47 269.21 754.51 274.05 C 751.96 278.95 746.21 282.90 740.55 281.38 C 735.30 278.74 731.14 272.96 731.57 266.93 C 732.42 262.57 736.31 259.53 740.22 257.90 Z" />
<path fill="#fefdfb" opacity="1.00" d=" M 415.16 270.79 C 421.07 268.12 428.69 274.66 426.14 280.86 C 424.22 283.95 420.97 287.22 417.01 286.43 C 413.59 285.09 409.80 282.07 410.35 277.99 C 409.94 274.78 412.70 272.34 415.16 270.79 Z" />
<path fill="#fefdfb" opacity="1.00" d=" M 502.25 281.80 C 503.88 280.37 505.51 278.10 507.98 278.54 C 510.29 279.27 512.63 281.35 512.48 283.97 C 511.75 286.74 508.96 289.09 505.99 288.49 C 503.35 287.31 502.05 284.59 502.25 281.80 Z" />
<path fill="#fefdfb" opacity="1.00" d=" M 380.33 295.29 C 386.15 290.41 392.55 286.25 398.09 281.05 C 399.35 281.97 400.88 283.26 400.66 285.02 C 400.04 286.53 398.52 287.36 397.37 288.41 C 387.82 295.45 379.13 303.56 369.78 310.85 C 359.02 319.76 348.27 328.67 337.37 337.41 C 328.25 344.97 319.29 352.70 309.98 360.03 C 303.19 365.54 296.32 370.99 290.39 377.46 C 286.35 382.02 280.22 385.51 273.97 384.15 C 274.49 381.90 276.41 380.60 278.02 379.16 C 274.86 379.68 270.74 379.70 269.04 382.94 C 267.87 384.52 267.16 387.76 264.53 386.50 C 262.02 383.58 263.99 378.75 266.81 376.68 C 272.42 373.25 280.06 374.66 285.15 370.15 C 316.83 345.13 348.63 320.28 380.33 295.29 Z" />
<path fill="#fefdfb" opacity="1.00" d=" M 524.20 291.57 C 522.22 290.24 524.16 285.55 526.50 286.65 C 536.03 294.77 545.74 302.67 555.53 310.48 C 579.99 330.35 604.42 350.26 628.87 370.13 C 633.05 374.59 639.33 375.29 644.98 376.46 C 649.91 377.39 654.34 385.14 648.93 388.38 C 645.95 386.99 645.93 382.70 642.78 381.47 C 640.76 380.13 638.28 380.48 636.00 380.50 C 637.47 381.92 641.86 382.59 640.28 385.23 C 636.77 386.09 633.23 384.49 630.24 382.77 C 623.11 378.04 617.93 371.06 611.39 365.63 C 582.27 341.01 553.25 316.26 524.20 291.57 Z" />
<path fill="#fefdfb" opacity="1.00" d=" M 337.21 353.07 C 358.55 331.46 380.85 310.77 402.11 289.06 C 403.87 290.00 405.60 291.79 404.45 293.91 C 395.67 303.63 386.03 312.54 377.33 322.34 C 369.75 329.42 363.04 337.35 355.60 344.57 C 347.41 354.03 338.14 362.47 329.78 371.78 C 325.03 376.03 318.95 381.47 312.06 379.13 C 313.66 377.44 315.78 376.26 317.05 374.27 C 314.22 374.62 311.43 375.54 309.00 377.02 C 307.48 379.03 306.65 381.83 303.92 382.53 C 301.00 378.92 302.34 373.25 306.51 371.36 C 312.70 369.45 319.88 369.47 324.97 364.92 C 329.09 361.02 332.92 356.81 337.21 353.07 Z" />
<path fill="#fefdfb" opacity="1.00" d=" M 428.14 291.88 C 430.84 290.89 434.50 291.12 436.49 293.52 C 439.43 296.24 439.45 301.71 436.21 304.23 C 434.43 305.56 432.35 306.93 430.01 306.48 C 426.86 305.26 423.37 302.72 423.48 298.98 C 422.92 295.74 425.80 293.52 428.14 291.88 Z" />
<path fill="#fefdfb" opacity="1.00" d=" M 493.43 293.23 C 497.92 290.05 503.91 296.26 501.19 300.87 C 500.04 302.29 498.76 303.82 497.00 304.48 C 494.34 304.96 492.33 302.76 490.83 300.90 C 489.57 297.99 490.91 294.91 493.43 293.23 Z" />
<path fill="#fefdfb" opacity="1.00" d=" M 519.07 296.11 C 526.16 301.86 532.47 308.61 539.37 314.63 C 551.35 326.68 564.10 337.93 576.10 349.96 C 580.10 353.95 584.62 357.39 588.44 361.57 C 593.35 367.64 601.76 369.11 609.13 369.47 C 611.56 371.72 614.94 374.21 614.44 377.97 C 614.63 379.71 612.89 380.79 611.95 382.00 C 609.90 379.79 609.19 376.17 606.15 375.05 C 604.31 374.20 602.35 373.67 600.37 373.32 C 600.42 373.74 600.50 374.60 600.54 375.02 C 601.83 375.94 604.14 376.47 603.82 378.55 C 601.10 378.55 598.04 379.24 595.64 377.60 C 588.39 373.34 583.05 366.73 577.09 360.95 C 556.82 340.64 536.55 320.32 516.36 299.94 C 517.25 298.65 518.34 297.51 519.07 296.11 Z" />
<path fill="#fefdfb" opacity="1.00" d=" M 321.23 392.23 C 350.23 360.98 378.96 329.45 407.97 298.24 C 409.24 298.37 410.35 298.96 411.30 300.02 C 410.66 302.22 409.34 304.07 407.77 305.71 C 382.61 333.60 357.98 361.95 333.02 390.02 C 326.99 396.37 321.97 403.71 315.34 409.48 C 309.13 413.79 301.91 416.38 294.83 418.88 C 292.20 420.09 289.45 419.07 286.93 418.17 C 287.45 416.02 289.50 415.26 291.18 414.21 C 288.23 414.37 285.28 414.42 282.33 414.47 C 280.73 416.15 279.43 418.07 277.98 419.88 C 276.65 418.87 274.91 417.96 275.50 415.98 C 277.04 411.70 281.27 408.21 285.95 408.46 C 293.09 408.14 300.78 409.71 307.37 406.20 C 313.06 402.74 316.72 396.97 321.23 392.23 Z" />
<path fill="#fefdfb" opacity="1.00" d=" M 475.49 302.46 C 478.36 299.86 482.73 302.98 483.58 305.98 C 484.76 310.15 480.32 314.85 476.09 313.26 C 474.37 311.56 471.94 309.70 472.38 306.98 C 472.24 304.95 474.14 303.64 475.49 302.46 Z" />
<path fill="#fefdfb" opacity="1.00" d=" M 453.37 303.30 C 457.07 300.77 461.31 304.54 462.59 307.98 C 463.74 313.64 455.37 318.66 451.74 313.31 C 447.91 310.64 449.61 305.06 453.37 303.30 Z" />
<path fill="#fefdfb" opacity="1.00" d=" M 509.14 306.94 C 510.22 305.63 511.49 304.56 513.05 303.89 C 524.69 315.93 536.77 327.55 548.10 339.89 C 554.65 346.67 561.41 353.26 567.83 360.16 C 578.58 370.42 588.45 381.53 599.04 391.95 C 605.42 398.56 611.99 404.97 618.24 411.69 C 622.64 415.51 625.79 420.97 631.39 423.24 C 638.58 423.79 645.83 422.92 653.03 423.44 C 657.36 424.29 662.36 429.98 658.08 433.84 C 656.06 432.29 654.25 430.47 652.60 428.54 C 649.40 428.57 646.20 428.48 643.00 428.59 C 644.05 431.62 650.08 428.98 648.32 433.21 C 644.54 433.83 640.53 433.86 636.90 432.52 C 630.84 430.56 623.76 429.68 619.44 424.49 C 589.62 392.68 559.80 360.84 530.01 329.00 C 522.70 321.97 516.63 313.79 509.14 306.94 Z" />
<path fill="#fefdfb" opacity="1.00" d=" M 405.85 316.92 C 409.05 313.06 411.88 308.92 415.07 305.04 C 416.54 306.05 417.81 307.28 418.78 308.80 C 410.92 318.01 404.16 328.09 396.69 337.61 C 378.54 361.47 360.56 385.45 342.49 409.37 C 336.80 417.38 330.48 425.92 320.81 429.25 C 319.04 429.46 316.39 430.42 315.95 427.93 C 317.28 426.61 318.94 425.67 320.15 424.24 C 317.35 424.36 314.58 425.08 312.06 426.30 C 309.67 427.24 310.18 430.59 308.18 431.89 C 304.46 432.43 305.57 428.31 305.49 425.99 C 306.24 423.67 308.08 421.80 310.39 421.03 C 315.51 418.96 321.40 419.08 326.18 416.14 C 328.90 413.82 330.69 410.65 332.94 407.92 C 357.43 377.73 381.38 347.12 405.85 316.92 Z" />
<path fill="#fefdfb" opacity="1.00" d=" M 501.31 313.81 C 502.38 312.37 503.67 311.16 505.04 310.02 C 531.81 342.91 558.49 375.88 585.12 408.88 C 588.13 412.07 590.49 416.43 595.05 417.58 C 600.95 419.94 608.64 418.97 612.68 424.80 C 612.56 426.88 612.56 428.97 612.54 431.06 C 611.86 431.48 610.49 432.31 609.80 432.73 C 608.31 430.23 607.49 426.87 604.54 425.67 C 602.56 424.40 600.17 424.46 597.93 424.41 C 599.14 425.59 600.64 426.40 602.27 426.89 C 602.38 427.44 602.60 428.52 602.71 429.06 C 600.65 429.52 598.38 429.85 596.45 428.78 C 591.34 426.47 585.87 424.17 582.37 419.58 C 558.17 387.79 533.91 356.06 509.71 324.27 C 506.98 320.73 504.44 317.02 501.31 313.81 Z" />
<path fill="#fefdfb" opacity="1.00" d=" M 422.93 312.44 C 425.61 311.29 427.77 314.10 426.57 316.52 C 414.51 338.83 403.07 361.48 390.92 383.76 C 387.40 390.05 382.55 395.89 376.14 399.37 C 374.08 400.71 371.56 400.65 369.20 400.58 C 369.17 398.17 371.53 397.00 372.97 395.46 C 368.38 394.68 364.83 398.11 362.94 401.90 C 362.45 403.37 361.01 403.56 359.70 403.69 C 359.47 401.28 357.63 398.55 359.42 396.38 C 362.68 390.45 370.27 390.78 375.85 388.57 C 380.60 387.31 382.04 382.15 384.40 378.46 C 397.38 356.53 409.99 334.39 422.93 312.44 Z" />
<path fill="#fefdfb" opacity="1.00" d=" M 491.32 317.80 C 492.61 317.31 493.91 316.79 495.19 316.26 C 497.92 319.33 499.54 323.14 501.55 326.69 C 513.14 346.11 524.29 365.80 535.72 385.31 C 538.49 389.09 543.55 389.59 547.74 390.81 C 550.91 391.77 555.08 392.05 556.60 395.53 C 558.11 397.48 557.50 400.09 557.66 402.39 C 556.47 402.63 555.27 402.80 554.06 402.91 C 553.13 401.05 552.72 398.58 550.74 397.51 C 548.14 396.71 545.48 395.98 543.13 394.58 C 543.45 395.35 543.71 396.15 543.92 396.98 C 545.27 397.64 546.63 398.29 547.96 399.03 C 547.76 401.62 544.63 400.44 543.00 400.55 C 539.53 399.62 536.40 397.67 533.55 395.53 C 529.82 392.65 528.03 388.15 525.73 384.20 C 515.42 364.21 504.60 344.49 494.08 324.62 C 492.93 322.43 491.18 320.41 491.32 317.80 Z" />
<path fill="#fefdfb" opacity="1.00" d=" M 397.33 405.52 C 409.54 376.07 421.57 346.55 433.85 317.13 C 435.54 317.84 437.13 318.81 438.60 319.91 C 433.79 330.93 429.77 342.29 425.72 353.61 C 420.34 366.96 415.72 380.61 410.44 394.00 C 407.03 403.86 403.98 414.75 395.35 421.43 C 392.98 422.66 390.27 424.06 387.53 423.42 C 385.83 420.35 391.85 420.21 391.17 417.60 C 385.64 417.84 380.46 422.74 381.41 428.59 C 380.47 428.55 379.53 428.50 378.59 428.45 C 377.23 424.74 376.11 419.47 379.84 416.74 C 385.36 412.66 394.26 412.53 397.33 405.52 Z" />
<path fill="#fefdfb" opacity="1.00" d=" M 479.31 322.69 C 480.80 321.77 482.51 321.46 484.24 321.28 C 488.42 330.57 492.00 340.12 495.80 349.57 C 499.40 356.63 501.74 364.22 504.97 371.44 C 509.34 381.45 513.40 391.59 517.50 401.71 C 522.03 409.55 535.18 407.25 537.48 417.01 C 536.59 419.36 536.38 422.60 533.89 423.86 C 531.76 422.35 532.47 419.70 532.29 417.49 C 529.46 415.38 526.32 413.74 523.07 412.38 C 523.77 414.66 527.30 415.91 526.48 418.42 C 521.29 418.79 516.56 415.37 513.20 411.72 C 509.88 406.39 508.08 400.27 506.06 394.36 C 496.83 370.58 488.53 346.48 479.31 322.69 Z" />
<path fill="#fefdfb" opacity="1.00" d=" M 444.61 322.48 C 446.24 322.41 447.87 322.35 449.51 322.28 C 449.74 324.83 449.63 327.44 449.01 329.94 C 444.52 352.83 440.51 375.81 436.48 398.77 C 436.17 405.43 430.89 410.65 425.33 413.62 C 424.02 414.19 421.04 415.73 421.30 413.06 C 421.90 411.63 422.92 410.44 423.78 409.17 C 420.77 409.43 418.51 411.48 416.34 413.37 C 415.97 415.77 417.66 419.19 415.07 420.68 C 412.62 419.97 412.12 416.83 410.98 414.84 C 409.07 410.91 412.96 407.52 416.16 405.97 C 420.26 403.41 425.98 402.18 427.92 397.24 C 431.14 384.13 434.04 370.86 437.13 357.67 C 438.67 345.75 443.12 334.38 444.61 322.48 Z" />
<path fill="#fefdfb" opacity="1.00" d=" M 119.14 323.93 C 124.97 325.82 130.56 328.49 136.09 331.15 L 136.29 332.03 C 133.69 338.41 132.46 346.64 125.81 350.17 C 119.09 352.91 112.38 345.52 113.82 338.96 C 115.13 333.79 117.40 328.95 119.14 323.93 Z" />
<path fill="#fefdfb" opacity="1.00" d=" M 456.47 325.93 C 456.24 322.57 462.33 322.66 462.32 326.00 C 462.78 340.99 461.87 356.06 463.40 370.99 C 463.49 381.66 463.48 392.34 463.62 403.02 C 464.39 408.83 458.89 414.75 453.12 414.82 C 453.24 412.81 454.07 410.98 454.72 409.12 C 451.80 410.02 449.53 412.23 447.74 414.62 C 447.35 416.58 448.42 418.45 448.79 420.33 C 447.62 420.52 446.45 420.64 445.27 420.70 C 443.68 417.61 442.05 414.43 442.31 410.84 C 445.09 407.60 449.23 406.15 452.44 403.45 C 455.05 401.47 454.83 397.94 455.32 395.03 C 455.55 382.32 455.54 369.61 455.66 356.90 C 455.95 358.19 456.16 359.51 456.63 360.77 C 455.87 349.17 456.60 337.54 456.47 325.93 Z" />
<path fill="#fefdfb" opacity="1.00" d=" M 466.30 324.81 C 467.82 323.81 469.61 323.52 471.38 323.23 C 475.86 337.32 477.94 352.04 481.71 366.35 C 483.69 377.00 486.46 387.49 488.94 398.04 C 490.48 406.16 502.38 405.15 504.44 412.99 C 503.80 416.15 502.86 421.61 498.44 420.73 C 498.47 418.60 498.84 416.46 498.51 414.35 C 497.10 411.17 493.60 409.03 490.10 409.46 C 491.98 411.09 494.79 412.87 493.31 415.79 C 486.73 414.68 482.00 408.76 481.12 402.35 C 479.09 391.30 476.76 380.32 474.72 369.25 C 474.00 362.46 471.69 355.93 471.26 349.10 C 469.12 341.10 468.99 332.68 466.30 324.81 Z" />
<path fill="#fefdfb" opacity="1.00" d=" M 263.42 444.01 C 266.58 443.41 269.81 443.64 273.01 443.62 C 287.02 443.60 301.04 443.66 315.06 443.60 C 316.45 443.37 318.12 443.92 318.48 445.44 C 323.06 458.85 327.46 472.30 331.70 485.82 C 338.53 505.23 344.84 524.82 351.12 544.41 C 352.77 550.65 355.63 556.65 355.93 563.18 C 356.30 563.26 357.04 563.41 357.41 563.48 C 361.29 547.18 367.69 531.61 372.52 515.58 C 376.85 503.58 380.42 491.32 384.82 479.34 C 388.72 468.04 392.11 456.56 396.31 445.37 C 396.74 443.83 398.57 443.48 399.95 443.61 C 416.99 443.63 434.02 443.63 451.05 443.60 C 452.50 443.43 454.11 443.84 454.91 445.18 C 473.27 473.85 491.97 502.28 510.37 530.91 C 514.59 537.34 519.26 543.51 522.75 550.38 C 523.39 551.79 524.37 553.00 525.53 554.03 C 525.41 550.67 524.31 547.43 524.48 544.05 C 524.27 510.67 524.48 477.29 524.37 443.92 C 530.88 443.27 537.45 443.77 544.00 443.62 C 549.87 443.77 555.78 443.26 561.63 443.94 C 561.57 474.63 561.64 505.31 561.59 536.00 C 561.52 539.73 562.54 543.36 562.54 547.09 C 563.40 557.04 567.83 567.79 577.19 572.51 C 585.16 575.96 594.37 576.53 602.73 574.25 C 608.80 572.73 613.65 568.20 617.00 563.10 C 621.41 555.86 621.68 547.19 622.40 539.01 C 622.39 507.31 622.42 475.62 622.38 443.92 C 628.23 443.25 634.13 443.77 640.00 443.62 C 646.54 443.76 653.11 443.29 659.63 443.91 C 659.57 474.94 659.63 505.97 659.61 537.01 C 659.52 542.27 659.77 547.58 658.56 552.75 C 656.52 568.64 649.80 584.77 636.79 594.73 C 628.59 601.50 618.35 605.35 607.90 606.81 C 592.65 609.97 576.60 608.59 561.90 603.59 C 561.37 604.89 560.95 606.25 560.42 607.56 C 548.12 607.49 535.81 607.49 523.51 607.56 C 521.26 604.37 519.44 600.91 517.20 597.73 C 512.03 590.76 507.93 583.08 502.96 575.97 C 485.02 548.77 467.28 521.43 449.67 494.01 C 449.61 531.59 449.63 569.18 449.66 606.76 C 437.86 606.93 426.06 606.81 414.26 606.82 C 414.36 562.98 414.06 519.12 414.41 475.28 C 414.05 475.46 413.33 475.81 412.97 475.98 C 412.83 477.30 412.68 478.62 412.47 479.94 C 408.83 492.82 404.62 505.52 400.48 518.23 C 393.23 539.67 386.53 561.31 378.93 582.64 C 376.39 590.91 373.24 599.00 371.18 607.40 C 360.71 607.64 350.24 607.53 339.78 607.45 C 337.17 596.72 332.27 586.74 329.38 576.10 C 326.53 568.16 323.65 560.24 321.30 552.14 C 313.75 530.66 306.53 509.09 299.62 487.41 C 299.25 485.90 298.58 484.48 297.63 483.28 C 297.26 503.50 297.65 523.76 297.47 543.99 C 297.57 565.15 297.24 586.31 297.44 607.47 C 286.13 607.58 274.82 607.49 263.50 607.52 C 263.41 553.02 263.58 498.51 263.42 444.01 Z" />
<path fill="#fefdfb" opacity="1.00" d=" M 137.49 625.58 C 138.81 623.64 141.55 622.75 143.28 624.75 C 148.10 629.18 150.78 635.38 155.28 640.12 C 152.66 643.44 147.21 643.76 144.29 640.71 C 140.25 636.86 136.19 631.50 137.49 625.58 Z" />
<path fill="#fefdfb" opacity="1.00" d=" M 534.21 720.33 C 537.83 719.36 541.55 718.80 545.22 718.05 C 545.93 722.60 544.19 727.97 539.29 729.25 C 536.69 729.56 532.61 730.73 531.36 727.60 C 529.58 725.05 531.17 720.93 534.21 720.33 Z" />
<path fill="#fefdfb" opacity="1.00" d=" M 226.52 719.58 C 230.19 717.40 234.67 718.98 237.95 721.14 C 241.52 723.74 244.84 727.43 245.35 731.97 C 244.58 737.21 240.71 742.73 235.01 743.08 C 231.11 743.28 227.57 740.83 224.67 738.44 C 221.91 735.74 218.92 732.16 219.72 728.02 C 220.69 724.44 223.14 721.18 226.52 719.58 Z" />
<path fill="#fefdfb" opacity="1.00" d=" M 646.18 747.04 C 643.71 739.34 651.22 732.99 658.05 731.62 C 660.55 731.14 662.87 732.39 664.69 734.02 C 658.84 738.76 652.82 743.45 646.18 747.04 Z" />
<path fill="#fefdfb" opacity="1.00" d=" M 327.88 790.48 C 334.66 789.51 341.02 792.52 347.72 792.66 C 347.49 795.78 345.93 798.95 342.95 800.27 C 337.17 801.45 330.72 800.26 326.37 796.11 C 326.37 794.09 326.84 792.20 327.88 790.48 Z" />
</g>
</svg>
